<svg width="258" height="100" viewBox="0 0 258 100" fill="none" xmlns="http://www.w3.org/2000/svg">
<g clip-path="url(#clip0_120_86)">
<path d="M41.3127 67.7085C41.5203 67.7085 41.5203 67.7085 41.5203 67.9168L37.1607 79.1668C36.3303 81.0418 35.9151 81.2502 33.8391 81.2502C31.763 81.2502 31.1402 81.0418 30.9326 79.1668L30.3098 72.5002L27.4034 79.1668C26.573 81.0418 26.1578 81.2502 23.8742 81.2502C21.5906 81.2502 21.383 81.0418 21.383 79.1668L20.9678 67.9168C20.9678 67.7085 20.9678 67.7085 21.383 67.7085H23.8742C23.8742 67.7085 24.0818 67.7085 24.0818 67.9168L24.497 77.9168C24.497 78.3335 24.497 78.5418 24.9122 78.5418C25.3274 78.5418 25.3274 78.5418 25.535 77.9168L29.687 68.3335C29.687 68.1252 29.8946 68.1252 30.1022 68.1252H32.3859C32.3859 68.1252 32.8011 68.1252 32.8011 68.3335L33.6315 77.9168C33.6315 78.3335 33.6315 78.5418 34.0467 78.5418C34.4619 78.5418 34.4619 78.5418 34.6695 77.9168L38.6139 67.9168C38.6139 67.7085 38.6139 67.7085 39.0291 67.7085H41.5203H41.3127Z" fill="white"/>
<path d="M54.8069 74.5835C53.7688 80.0002 52.3156 81.4585 47.3332 81.4585C42.3508 81.4585 41.3128 79.7918 42.1432 74.5835C43.1812 69.1668 44.6344 67.7085 49.6168 67.7085C54.5993 67.7085 55.6373 69.3752 54.8069 74.5835ZM45.2572 74.5835C44.6344 77.9168 45.0496 78.9585 47.7484 78.9585C50.4472 78.9585 51.07 77.9168 51.6928 74.5835C52.3156 71.0418 51.9004 70.0002 49.2016 70.0002C46.5028 70.0002 45.88 71.0418 45.2572 74.5835Z" fill="white"/>
<path d="M69.3389 72.0837C68.9237 74.792 67.8856 75.8337 65.602 76.2503L68.0932 81.042C68.0932 81.042 68.0933 81.4587 67.8856 81.4587H65.3944C64.9792 81.4587 64.7716 81.4587 64.7716 81.042L62.488 76.4587H60.6196L59.7892 81.042C59.7892 81.2503 59.7892 81.2503 59.374 81.2503H56.8828C56.6752 81.2503 56.6752 81.2503 56.6752 81.042L58.9588 68.1253C58.9588 68.1253 58.9588 67.917 59.374 67.917C61.2424 67.917 63.1108 67.917 64.564 67.917C68.9237 67.917 70.1693 68.9587 69.5465 72.5003L69.3389 72.0837ZM61.6576 70.0003L60.8272 74.167H62.9032C65.1868 74.167 65.8096 73.9587 66.2248 72.0837C66.64 70.417 66.0172 70.0003 63.7336 70.0003H61.6576Z" fill="white"/>
<path d="M75.7745 67.7085C75.7745 67.7085 75.9821 67.7085 75.9821 67.9168L74.1137 78.9585H80.5493C80.5493 78.9585 80.7569 78.9585 80.7569 79.1668L80.3417 81.0418C80.3417 81.0418 80.3417 81.2502 79.9265 81.2502H70.7921C70.7921 81.2502 70.5845 81.2502 70.5845 81.0418L72.8681 67.9168C72.8681 67.9168 72.8681 67.7085 73.2833 67.7085H75.7745Z" fill="white"/>
<path d="M95.2891 74.3753C94.4587 79.167 92.3826 81.2503 87.8154 81.2503C83.2482 81.2503 83.871 81.2503 82.2102 81.2503C82.0026 81.2503 82.0026 81.2503 82.0026 81.042L84.2862 68.1253C84.2862 68.1253 84.2862 67.917 84.7014 67.917C86.5698 67.917 88.4382 67.917 90.3066 67.917C94.8739 67.917 96.3271 70.0003 95.4967 74.792L95.2891 74.3753ZM86.985 70.0003L85.3242 78.9587H88.2306C90.5142 78.9587 91.7598 77.7087 92.175 74.3753C92.7978 71.042 92.175 69.792 89.6838 69.792H86.985V70.0003Z" fill="white"/>
<path d="M113.973 67.9168C114.181 67.9168 114.388 67.9168 114.388 68.3335V69.7918C114.181 69.7918 113.973 70.0002 113.766 70.0002H109.821C107.122 70.0002 106.5 71.0418 105.877 74.5835C105.254 77.9168 105.462 79.1668 108.16 79.1668H112.105C112.105 79.1668 112.312 79.1668 112.312 79.3752V80.8335C112.105 81.0418 111.897 81.2502 111.482 81.2502C110.444 81.2502 109.198 81.4585 107.538 81.4585C102.555 81.4585 101.517 79.7918 102.555 74.5835C103.593 69.1668 105.046 67.7085 110.029 67.7085C115.011 67.7085 112.935 67.7085 113.766 67.9168H113.973Z" fill="white"/>
<path d="M128.298 67.7085C128.298 67.7085 128.505 67.7085 128.505 67.9168L126.222 81.0418C126.222 81.0418 126.222 81.2502 125.806 81.2502H123.315C123.315 81.2502 123.108 81.2502 123.108 81.0418L124.146 75.6252H117.71L116.672 81.0418C116.672 81.0418 116.672 81.2502 116.257 81.2502H113.766C113.766 81.2502 113.558 81.2502 113.558 81.0418L115.842 67.9168C115.842 67.9168 115.842 67.7085 116.257 67.7085H118.748C118.748 67.7085 118.956 67.7085 118.956 67.9168L117.918 73.1252H124.353L125.391 67.9168C125.391 67.9168 125.391 67.7085 125.806 67.7085H128.298Z" fill="white"/>
<path d="M140.339 69.5836L141.792 80.8336C141.792 81.0419 141.792 81.0419 141.377 81.0419H138.885C138.885 81.0419 138.885 81.0419 138.678 80.8336L138.263 77.0836H133.072L131.204 80.8336C131.204 81.0419 131.204 81.0419 130.789 81.0419H128.298C128.09 81.0419 128.09 81.0419 128.298 80.8336L133.695 69.5836C134.733 67.7086 135.149 67.5002 137.225 67.5002C139.301 67.5002 139.923 67.5002 140.131 69.5836H140.339ZM136.394 70.4169L134.111 75.0002H137.847L137.225 70.4169C137.225 70.0002 137.225 70.0002 136.809 70.0002C136.394 70.0002 136.394 70.0002 136.187 70.4169H136.394Z" fill="white"/>
<path d="M149.058 67.7085C149.058 67.7085 149.265 67.7085 149.265 67.9168L147.397 78.9585H153.833C153.833 78.9585 154.04 78.9585 154.04 79.1668L153.625 81.0418C153.625 81.0418 153.625 81.2502 153.21 81.2502H144.075C144.075 81.2502 143.868 81.2502 143.868 81.0418L146.151 67.9168C146.151 67.9168 146.151 67.7085 146.567 67.7085H149.058Z" fill="white"/>
<path d="M160.268 67.7085C160.268 67.7085 160.476 67.7085 160.476 67.9168L158.607 78.9585H165.043C165.043 78.9585 165.251 78.9585 165.251 79.1668L164.836 81.0418C164.836 81.0418 164.836 81.2502 164.42 81.2502H155.286C155.286 81.2502 155.078 81.2502 155.078 81.0418L157.362 67.9168C157.362 67.9168 157.362 67.7085 157.777 67.7085H160.268Z" fill="white"/>
<path d="M178.745 67.7086C178.745 67.7086 178.952 67.7086 178.952 67.9169L178.537 69.7919C178.537 69.7919 178.537 70.0002 178.122 70.0002H171.064L170.441 73.3336H176.876C176.876 73.3336 177.084 73.3336 177.084 73.5419L176.669 75.4169C176.669 75.4169 176.669 75.6252 176.254 75.6252H169.818L169.195 78.7502H176.254C176.254 78.7502 176.461 78.7502 176.461 78.9586L176.046 80.8336C176.046 80.8336 176.046 81.0419 175.631 81.0419H165.874C165.874 81.0419 165.666 81.0419 165.666 80.8336L167.95 67.7086C167.95 67.7086 167.95 67.5002 168.365 67.5002H178.122L178.745 67.7086Z" fill="white"/>
<path d="M194.107 67.7086C194.107 67.7086 194.315 67.7086 194.315 67.9169L192.031 81.0419C192.031 81.0419 192.031 81.2502 191.616 81.2502H189.748C189.333 81.2502 189.125 81.2502 188.917 80.8336L183.935 72.2919L182.482 80.8336C182.482 80.8336 182.482 81.0419 182.066 81.0419H179.575C179.575 81.0419 179.368 81.0419 179.368 80.8336L181.651 67.7086C181.651 67.7086 181.651 67.5002 182.066 67.5002H183.935C184.765 67.5002 184.765 67.5002 184.973 68.1252L189.54 76.0419L190.993 67.7086C190.993 67.7086 190.993 67.5002 191.409 67.5002H193.9L194.107 67.7086Z" fill="white"/>
<path d="M207.601 67.9168C207.809 67.9168 208.017 67.9168 208.017 68.3335V69.7918C207.809 69.7918 207.601 70.0002 207.394 70.0002H203.034C200.335 70.0002 199.713 71.0418 199.09 74.5835C198.467 77.9168 198.675 79.1668 201.373 79.1668H203.865L204.487 75.0002C204.487 75.0002 204.487 74.7918 204.903 74.7918H207.186C207.186 74.7918 207.394 74.7918 207.394 75.0002L206.563 80.0002C206.563 80.2085 206.563 80.4168 206.563 80.4168C205.941 81.0418 203.449 81.4585 201.166 81.4585C196.183 81.4585 195.145 79.7918 196.183 74.5835C197.221 69.1668 198.675 67.7085 203.657 67.7085C208.639 67.7085 206.771 67.7085 207.809 67.9168H207.601Z" fill="white"/>
<path d="M221.718 67.7086C221.718 67.7086 221.926 67.7086 221.926 67.9169L221.511 69.7919C221.511 69.7919 221.511 70.0002 221.095 70.0002H214.037L213.414 73.3336H219.85C219.85 73.3336 220.057 73.3336 220.057 73.5419L219.642 75.4169C219.642 75.4169 219.642 75.6252 219.227 75.6252H212.791L212.169 78.7502H219.227C219.227 78.7502 219.435 78.7502 219.435 78.9586L219.019 80.8336C219.019 80.8336 219.019 81.0419 218.604 81.0419H208.847C208.847 81.0419 208.639 81.0419 208.639 80.8336L210.923 67.7086C210.923 67.7086 210.923 67.5002 211.338 67.5002H221.095L221.718 67.7086Z" fill="white"/>
<path d="M121.239 54.1669L166.289 9.58358H55.8448C35.4999 9.58358 17.2309 22.0836 10.7953 26.8752C14.9473 22.7086 23.8742 13.9586 28.0262 9.79191C34.4619 3.33358 40.6899 0.000244141 55.222 0.000244141H254.935L248.914 6.04191C246.631 8.33358 243.516 9.58358 240.402 9.58358H198.467C198.052 10.0002 163.59 44.1669 160.476 47.2919C155.909 51.6669 149.681 54.1669 143.037 54.1669H121.654H121.239Z" fill="white"/>
<path d="M254.519 0.208496L248.706 5.83349C246.423 8.12516 243.516 9.37516 240.195 9.37516H198.052C197.637 9.79183 163.175 43.9585 160.061 47.0835C155.493 51.4585 149.265 53.9585 142.622 53.9585H121.654L166.289 9.79183L166.912 9.16683H55.8448C42.7659 9.16683 30.725 14.3752 22.6285 18.7502C18.4765 21.0418 14.9473 23.3335 12.4561 25.2085C17.0233 20.8335 24.2893 13.3335 28.0262 9.79183C31.763 6.04183 35.0846 3.75016 39.029 2.29183C43.1811 0.625163 48.1635 0.000162363 55.0144 0.000162363H254.312M255.142 -0.208172H55.222C41.5203 -0.208172 35.0846 2.7085 28.0262 9.5835C22.4209 15.0002 8.71924 28.7502 8.71924 28.7502C8.71924 28.7502 30.9326 9.5835 56.0524 9.5835H166.289L121.239 54.1668H143.037C149.473 54.1668 155.909 51.6668 160.683 47.0835C164.005 43.9585 198.675 9.37516 198.675 9.37516H240.61C243.932 9.37516 247.046 8.12516 249.329 5.83349L255.557 -0.416504L255.142 -0.208172Z" fill="white"/>
<path d="M138.055 19.1668H80.3418C76.8125 19.1668 73.4909 20.6252 70.9997 23.1252L67.6781 26.4585H105.669C91.5522 40.4168 91.3446 40.4168 75.9821 40.4168H46.9179L32.801 54.3752H91.3446C97.1575 54.3752 104.424 52.0835 109.406 47.0835L137.64 18.9585L138.055 19.1668Z" fill="white"/>
<path d="M59.9968 17.0834C64.9793 12.0834 70.3769 9.79175 77.0201 9.79175H55.8448C30.725 9.79175 8.51169 28.9584 8.51169 28.9584L5.19006 32.2917H44.8419C44.8419 32.2917 54.184 22.9167 59.7892 17.2917L59.9968 17.0834Z" fill="white"/>
<path d="M12.4562 88.75C12.4562 88.75 12.6638 88.75 12.6638 88.9583V90.4167C12.4562 90.4167 12.2486 90.625 12.041 90.625H6.43578L6.02058 93.3333H11.2106C11.2106 93.3333 11.4182 93.3333 11.4182 93.5417V95C11.2106 95 11.003 95.2083 10.7954 95.2083H5.60538L5.19017 97.7083H10.7954C10.7954 97.7083 11.003 97.7083 10.7954 97.9167V99.375C10.5878 99.375 10.3802 99.5833 10.1726 99.5833H2.69896C2.69896 99.5833 2.49136 99.5833 2.69896 99.375L4.56737 88.9583C4.56737 88.9583 4.56737 88.75 4.77497 88.75H12.6638H12.4562Z" fill="white"/>
<path d="M26.9883 88.75C26.9883 88.75 27.1959 88.75 26.9883 88.9583L26.1579 94.1667C25.3275 98.5417 24.2895 99.7917 20.1375 99.7917C15.9854 99.7917 15.3626 98.75 16.193 94.1667L17.231 88.9583C17.231 88.9583 17.231 88.75 17.4386 88.75H19.5146C19.5146 88.75 19.7222 88.75 19.5146 88.9583L18.6842 94.1667C18.269 97.0833 18.6842 97.7083 20.5527 97.7083C22.4211 97.7083 23.2515 97.0833 23.6667 94.1667L24.4971 88.9583C24.4971 88.9583 24.4971 88.75 24.7047 88.75H26.7807H26.9883Z" fill="white"/>
<path d="M41.1052 92.2918C40.69 94.3752 39.8596 95.2085 38.1988 95.6252L40.2748 99.3752C40.2748 99.3752 40.2748 99.5835 40.0672 99.5835H37.9912C37.576 99.5835 37.576 99.5835 37.3684 99.3752L35.5 95.6252H34.0468L33.424 99.3752C33.424 99.3752 33.424 99.5835 33.2164 99.5835H31.1404C31.1404 99.5835 30.9328 99.5835 31.1404 99.3752L33.0088 88.9585C33.0088 88.9585 33.0088 88.9585 33.2164 88.9585C34.6696 88.9585 36.1228 88.9585 37.3684 88.9585C40.8976 88.9585 41.728 89.7918 41.3128 92.5002L41.1052 92.2918ZM34.8772 90.6252L34.2544 93.9585H35.9152C37.7836 93.9585 38.4064 93.7502 38.614 92.2918C38.8216 90.8335 38.614 90.6252 36.538 90.6252H34.8772Z" fill="white"/>
<path d="M55.6373 94.1667C54.8069 98.5417 53.5613 99.7918 49.6169 99.7918C45.6724 99.7918 44.842 98.5417 45.4648 94.1667C46.2952 89.7917 47.5409 88.5417 51.4853 88.5417C55.4297 88.5417 56.2601 89.7917 55.6373 94.1667ZM48.1637 94.1667C47.7485 96.8751 48.1637 97.7084 50.0321 97.7084C51.9005 97.7084 52.7309 96.8751 53.1461 94.1667C53.5613 91.4584 53.3537 90.6251 51.2777 90.6251C49.2017 90.6251 48.5789 91.4584 47.9561 94.1667H48.1637Z" fill="white"/>
<path d="M70.377 92.2917C69.9618 95.2084 68.7161 95.8334 65.1869 95.8334H63.3185L62.6957 99.5834C62.6957 99.5834 62.6957 99.7918 62.4881 99.7918H60.4121C60.4121 99.7918 60.2045 99.7917 60.4121 99.5834L62.2805 89.1667C62.2805 89.1667 62.2805 89.1667 62.4881 89.1667C63.9413 89.1667 65.3945 89.1667 66.6401 89.1667C70.1694 89.1667 70.9998 90.0001 70.5846 92.7084L70.377 92.2917ZM64.1489 90.6251L63.5261 93.9584H65.1869C67.0553 93.9584 67.6781 93.7501 67.8857 92.2917C68.0933 90.8334 67.8857 90.6251 65.8097 90.6251H64.1489Z" fill="white"/>
<path d="M83.6635 88.75C83.6635 88.75 83.8711 88.75 83.8711 88.9583V90.4167C83.6635 90.4167 83.4559 90.625 83.2483 90.625H77.6431L77.2279 93.3333H82.4179C82.4179 93.3333 82.6255 93.3333 82.6255 93.5417V95C82.4179 95 82.2103 95.2083 82.0027 95.2083H76.8127L76.3975 97.7083H82.0027C82.0027 97.7083 82.2103 97.7083 82.0027 97.9167V99.375C81.7951 99.375 81.5875 99.5833 81.3799 99.5833H73.4911C73.4911 99.5833 73.2835 99.5833 73.4911 99.375L75.3595 88.9583C75.3595 88.9583 75.3595 88.75 75.5671 88.75H83.4559H83.6635Z" fill="white"/>
</g>
<defs>
<clipPath id="clip0_120_86">
<rect width="257.426" height="100" fill="white"/>
</clipPath>
</defs>
</svg>
