<svg width="267" height="110" viewBox="0 0 267 110" fill="none" xmlns="http://www.w3.org/2000/svg">
<g clip-path="url(#clip0_117_2)">
<path d="M68.0914 11.5433C58.2105 6.28943 6.19118 13.7047 2.2146 60.6511C42.0662 64.6251 47.2672 56.0001 60.3412 51.074C58.4312 54.7535 55.2782 58.0604 55.8542 62.485C85.2092 65.4165 107.679 58.3815 129.481 36.1991C151.283 14.0167 171.476 9.74466 188.481 7.26424C172.168 10.4851 160.482 15.2599 158.341 19.2119L195.228 17.9872C201.278 12.3633 209.197 6.91173 217.22 3.61905C200.271 -4.27207 153.473 0.567696 132.19 19.8483C109.787 36.7789 96.9515 46.1959 74.21 46.7949L81.5523 29.8823C65.8039 38.9399 53.3282 47.4976 27.0969 46.0818C28.4295 34.1803 38.6058 24.664 68.7032 11.1358" fill="white" fill-opacity="0.995951"/>
<path d="M154.42 25.4859L190.152 25.4561C187.848 30.2594 185.001 36.301 181.897 38.4404L134.2 38.0627C138.347 33.8611 144.766 28.1153 154.42 25.4859Z" fill="white" fill-opacity="0.995951"/>
<path d="M113.15 59.4283L174.453 59.1227C177.318 57.3652 180.053 49.913 181.899 45.6102L133.167 45.4363C128.684 46.8553 119.801 53.6785 113.15 59.4283Z" fill="white" fill-opacity="0.995951"/>
<path d="M247.098 48.3917C243.637 55.9569 240.023 60.8296 220.274 61.3593C164.751 55.3309 202.6 -5.36531 267 5.31036C265.676 10.0619 262.211 14.8557 259.357 16.549C188.163 22.349 201.049 60.9271 247.098 48.3917Z" fill="white" fill-opacity="0.995951"/>
<path d="M3.70388 91.5344H0.820557V79.4976H10.6558V81.3582H3.70388V84.6474H9.17421V86.4551H3.70388V91.5344Z" fill="white" fill-opacity="0.995951"/>
<path d="M15.4765 91.5344H12.6729V79.4976H15.4765V91.5344Z" fill="white" fill-opacity="0.995951"/>
<path d="M31.1239 91.5344H28.1266L26.8844 88.6685H20.9012L19.6818 91.5344H17.2885L22.4511 79.4976H25.9043L31.1239 91.5344ZM26.1322 86.9313L23.8643 81.561L21.5964 86.9313H26.1322Z" fill="white" fill-opacity="0.995951"/>
<path d="M57.5183 79.4976L53.3585 91.5344H50.4182L47.3184 82.6809L44.5034 91.5344H41.6201L37.3692 79.4976H40.3437L43.3524 88.2717L46.1559 79.4976H48.9937L52.0935 88.2717L55.0452 79.4976H57.5183Z" fill="white" fill-opacity="0.995951"/>
<path d="M65.1767 91.7197C63.1101 91.7197 61.4994 91.1201 60.3446 89.9208C59.1973 88.7215 58.6237 87.24 58.6237 85.4764C58.6237 83.7245 59.2353 82.2607 60.4586 81.085C61.6818 79.9033 63.2963 79.3125 65.3021 79.3125C67.3231 79.3125 68.9186 79.9033 70.0886 81.085C71.2663 82.2607 71.8551 83.7334 71.8551 85.5029C71.8551 87.3606 71.2435 88.8626 70.0202 90.009C68.8046 91.1495 67.1901 91.7197 65.1767 91.7197ZM65.1998 89.9737C66.2103 89.9737 67.065 89.6504 67.764 89.0037C68.463 88.357 68.8125 87.1842 68.8125 85.4852C68.8125 84.1037 68.5238 83.022 67.9463 82.2401C67.3689 81.4524 66.4724 81.0585 65.2568 81.0585C62.8559 81.0585 61.6555 82.5547 61.6555 85.547C61.6555 86.999 61.9594 88.1013 62.5672 88.8538C63.1826 89.6004 64.0601 89.9737 65.1998 89.9737Z" fill="white" fill-opacity="0.995951"/>
<path d="M86.6136 91.5344H83.6505L81.2344 86.5874H77.2912V91.5344H74.4877V79.4976H81.2344C83.111 79.4976 84.49 79.8268 85.3714 80.4852C86.2527 81.1377 86.6933 81.9843 86.6933 83.0248C86.6933 84.571 85.7588 85.635 83.8898 86.217L86.6136 91.5344ZM77.2912 84.8502H80.7786C81.789 84.8502 82.5412 84.6856 83.0351 84.3564C83.5289 84.0272 83.7758 83.5745 83.7758 82.9984C83.7758 82.4693 83.5327 82.0431 83.0465 81.7197C82.5602 81.3905 81.8802 81.2259 81.0065 81.2259H77.2912V84.8502Z" fill="white" fill-opacity="0.995951"/>
<path d="M99.0586 91.5344H89.4855V79.4976H92.4372V89.5679H99.0586V91.5344Z" fill="white" fill-opacity="0.995951"/>
<path d="M101.03 91.5344V79.4976H106.763C108.882 79.4976 110.584 80.0796 111.868 81.2436C113.152 82.4017 113.794 83.8332 113.794 85.538C113.794 87.2429 113.133 88.6685 111.811 89.8148C110.489 90.9612 108.597 91.5344 106.136 91.5344H101.03ZM103.913 89.7619H106.25C107.503 89.7619 108.567 89.3974 109.441 88.6685C110.315 87.9395 110.751 86.8549 110.751 85.4146C110.751 84.2388 110.368 83.2453 109.6 82.434C108.841 81.6169 107.834 81.2083 106.58 81.2083H103.913V89.7619Z" fill="white" fill-opacity="0.995951"/>
<path d="M132.325 91.5344H122.216V79.4976H132.222V81.2877H125.02V84.5504H130.809V86.2964H125.02V89.6649H132.325V91.5344Z" fill="white" fill-opacity="0.995951"/>
<path d="M146.502 91.5344H143.779L137.875 83.8449C137.784 83.7273 137.636 83.5363 137.431 83.2717C137.34 83.1542 137.199 82.969 137.009 82.7162V91.5344H134.753V79.4976H137.852L143.3 86.5874C143.345 86.6462 143.676 87.0783 144.291 87.8837V79.4976H146.502L146.502 91.5344Z" fill="white" fill-opacity="0.995951"/>
<path d="M149.853 91.5344V79.4976H155.585C157.705 79.4976 159.407 80.0796 160.691 81.2436C161.975 82.4017 162.617 83.8332 162.617 85.538C162.617 87.2429 161.956 88.6685 160.634 89.8148C159.312 90.9612 157.42 91.5344 154.958 91.5344H149.853ZM152.736 89.7619H155.072C156.326 89.7619 157.39 89.3974 158.263 88.6685C159.137 87.9395 159.574 86.8549 159.574 85.4146C159.574 84.2388 159.19 83.2453 158.423 82.434C157.663 81.6169 156.657 81.2083 155.403 81.2083H152.736V89.7619Z" fill="white" fill-opacity="0.995951"/>
<path d="M175.882 79.4976V87.2311C175.882 88.2775 175.731 89.0829 175.427 89.6473C175.123 90.2117 174.534 90.6996 173.66 91.1111C172.794 91.5168 171.734 91.7196 170.481 91.7196C169.212 91.7196 168.167 91.5432 167.347 91.1905C166.534 90.8377 165.949 90.3557 165.591 89.7443C165.234 89.127 165.056 88.3422 165.056 87.3898V79.4976H167.916V87.2311C167.916 88.2893 168.201 88.9859 168.771 89.321C169.348 89.6502 170.017 89.8148 170.777 89.8148C171.651 89.8148 172.35 89.6385 172.874 89.2857C173.398 88.9271 173.66 88.2423 173.66 87.2311V79.4976H175.882Z" fill="white" fill-opacity="0.995951"/>
<path d="M191.234 91.5344H188.271L185.854 86.5874H181.911V91.5344H179.108V79.4976H185.854C187.731 79.4976 189.11 79.8268 189.991 80.4852C190.873 81.1377 191.313 81.9843 191.313 83.0248C191.313 84.571 190.379 85.635 188.51 86.217L191.234 91.5344ZM181.911 84.8502H185.399C186.409 84.8502 187.161 84.6856 187.655 84.3564C188.149 84.0272 188.396 83.5745 188.396 82.9984C188.396 82.4693 188.153 82.0431 187.667 81.7197C187.18 81.3905 186.5 81.2259 185.627 81.2259H181.911V84.8502Z" fill="white" fill-opacity="0.995951"/>
<path d="M206.311 91.5344H203.314L202.072 88.6685H196.089L194.869 91.5344H192.476L197.638 79.4976H201.092L206.311 91.5344ZM201.32 86.9313L199.052 81.561L196.784 86.9313H201.32Z" fill="white" fill-opacity="0.995951"/>
<path d="M219.941 91.5344H217.218L211.314 83.8449C211.223 83.7273 211.075 83.5363 210.87 83.2717C210.779 83.1542 210.638 82.969 210.448 82.7162V91.5344H208.192V79.4976H211.292L216.739 86.5874C216.785 86.6462 217.115 87.0783 217.731 87.8837V79.4976H219.941V91.5344Z" fill="white" fill-opacity="0.995951"/>
<path d="M232.067 87.3547L234.666 87.5751C234.499 88.7803 233.895 89.7738 232.854 90.5557C231.82 91.3317 230.46 91.7197 228.774 91.7197C227.353 91.7197 226.198 91.4434 225.309 90.8908C224.428 90.3382 223.748 89.5886 223.269 88.6421C222.791 87.6957 222.551 86.6522 222.551 85.5117C222.551 83.6775 223.113 82.1872 224.238 81.0409C225.362 79.8886 226.909 79.3125 228.876 79.3125C230.419 79.3125 231.703 79.6799 232.728 80.4148C233.754 81.1496 234.4 82.2019 234.666 83.5717L232.067 83.7833C231.589 81.9668 230.533 81.0585 228.899 81.0585C227.851 81.0585 227.034 81.4377 226.449 82.1961C225.871 82.9486 225.583 84.042 225.583 85.4764C225.583 86.9344 225.894 88.0366 226.517 88.7832C227.14 89.524 227.965 89.8943 228.99 89.8943C229.811 89.8943 230.51 89.6445 231.087 89.1448C231.665 88.6451 231.991 88.0484 232.067 87.3547Z" fill="white" fill-opacity="0.995951"/>
<path d="M247.02 91.5344H236.911V79.4976H246.917V81.2877H239.714V84.5504H245.504V86.2964H239.714V89.6649H247.02V91.5344Z" fill="white" fill-opacity="0.995951"/>
<path d="M9.5161 105.635L12.1145 105.855C11.9474 107.061 11.3433 108.054 10.3025 108.836C9.26917 109.612 7.90919 110 6.2225 110C4.80174 110 3.64689 109.724 2.75796 109.171C1.87663 108.618 1.19664 107.869 0.717982 106.922C0.239328 105.976 0 104.932 0 103.792C0 101.958 0.56223 100.468 1.68669 99.3211C2.81114 98.1689 4.35727 97.5928 6.32507 97.5928C7.8674 97.5928 9.15141 97.9602 10.1771 98.695C11.2028 99.4299 11.8486 100.482 12.1145 101.852L9.5161 102.064C9.03744 100.247 7.98137 99.3388 6.34786 99.3388C5.29938 99.3388 4.48263 99.718 3.89761 100.476C3.32019 101.229 3.03148 102.322 3.03148 103.757C3.03148 105.215 3.34298 106.317 3.96599 107.064C4.589 107.804 5.41335 108.175 6.43903 108.175C7.25958 108.175 7.95857 107.925 8.536 107.425C9.11342 106.925 9.44012 106.329 9.5161 105.635Z" fill="white" fill-opacity="0.995951"/>
<path d="M25.9043 109.815H23.1007V104.585H17.1632V109.815H14.3596V97.7778H17.1632V102.725H23.1007V97.7778H25.9043V109.815Z" fill="white" fill-opacity="0.995951"/>
<path d="M41.5175 109.815H38.5202L37.278 106.949H31.2948L30.0754 109.815H27.6821L32.8447 97.7778H36.2979L41.5175 109.815ZM36.5258 105.212L34.2579 99.8413L31.99 105.212H36.5258Z" fill="white" fill-opacity="0.995951"/>
<path d="M58.6579 109.815H55.7974V99.2769L51.4895 109.815H50.0193L45.6886 99.2769V109.815H43.3979V97.7778H47.7856L51.045 105.529L54.2474 97.7778H58.6579V109.815Z" fill="white" fill-opacity="0.995951"/>
<path d="M64.8918 109.815H62.0883V97.7778H68.4589C70.2748 97.7778 71.6195 98.1335 72.4933 98.8448C73.3746 99.5503 73.8153 100.385 73.8153 101.349C73.8153 102.449 73.3404 103.339 72.3907 104.021C71.441 104.703 70.2368 105.044 68.778 105.044H64.8918V109.815ZM64.8918 103.183H68.2082C69.0743 103.183 69.7353 103.019 70.1912 102.69C70.6471 102.36 70.875 101.922 70.875 101.376C70.875 100.882 70.6622 100.459 70.2368 100.106C69.8189 99.7531 69.0591 99.5767 67.9575 99.5767H64.8918V103.183Z" fill="white" fill-opacity="0.995951"/>
<path d="M78.8867 109.815H76.0832V97.7778H78.8867V109.815Z" fill="white" fill-opacity="0.995951"/>
<path d="M88.0609 110C85.9944 110 84.3837 109.4 83.2288 108.201C82.0816 107.002 81.5079 105.52 81.5079 103.757C81.5079 102.005 82.1195 100.541 83.3428 99.3652C84.566 98.1836 86.1805 97.5928 88.1863 97.5928C90.2073 97.5928 91.8028 98.1836 92.9728 99.3652C94.1505 100.541 94.7393 102.014 94.7393 103.783C94.7393 105.641 94.1277 107.143 92.9045 108.289C91.6888 109.43 90.0743 110 88.0609 110ZM88.084 108.254C89.0945 108.254 89.9492 107.931 90.6482 107.284C91.3472 106.637 91.6967 105.464 91.6967 103.766C91.6967 102.384 91.408 101.302 90.8306 100.52C90.2531 99.7327 89.3566 99.3388 88.141 99.3388C85.7401 99.3388 84.5397 100.835 84.5397 103.827C84.5397 105.279 84.8436 106.382 85.4514 107.134C86.0668 107.881 86.9443 108.254 88.084 108.254Z" fill="white" fill-opacity="0.995951"/>
<path d="M109.122 109.815H106.398L100.495 102.125C100.403 102.008 100.255 101.817 100.05 101.552C99.9589 101.434 99.8183 101.249 99.6284 100.996V109.815H97.3719V97.7778H100.472L105.919 104.868C105.965 104.926 106.295 105.359 106.911 106.164V97.7778H109.122V109.815Z" fill="white" fill-opacity="0.995951"/>
<path d="M110.922 106.914L113.646 106.464C113.973 107.657 115.226 108.254 117.407 108.254C118.402 108.254 119.166 108.101 119.698 107.795C120.237 107.49 120.507 107.111 120.507 106.658C120.507 106.329 120.385 106.026 120.142 105.75C119.899 105.467 119.379 105.247 118.581 105.088L115.606 104.489C114.588 104.283 113.836 104.051 113.35 103.792C112.864 103.527 112.472 103.157 112.176 102.681C111.887 102.205 111.743 101.696 111.743 101.155C111.743 100.08 112.26 99.2183 113.293 98.5716C114.326 97.919 115.648 97.5928 117.259 97.5928C118.596 97.5928 119.789 97.8191 120.837 98.2718C121.893 98.7244 122.566 99.3652 122.855 100.194L120.188 100.706C119.777 99.7944 118.82 99.3388 117.316 99.3388C116.442 99.3388 115.773 99.4799 115.31 99.7621C114.854 100.044 114.626 100.403 114.626 100.838C114.626 101.526 115.348 102.008 116.792 102.284L119.436 102.796C121.039 103.107 122.114 103.569 122.661 104.18C123.208 104.785 123.481 105.456 123.481 106.191C123.481 107.372 122.904 108.304 121.749 108.986C120.602 109.662 119.113 110 117.282 110C115.739 110 114.387 109.75 113.224 109.25C112.07 108.751 111.302 107.972 110.922 106.914Z" fill="white" fill-opacity="0.995951"/>
<path d="M137.453 109.815H134.65V104.585H128.712V109.815H125.909V97.7778H128.712V102.725H134.65V97.7778H137.453V109.815Z" fill="white" fill-opacity="0.995951"/>
<path d="M143.665 109.815H140.861V97.7778H143.665V109.815Z" fill="white" fill-opacity="0.995951"/>
<path d="M149.91 109.815H147.106V97.7778H153.477C155.293 97.7778 156.638 98.1335 157.511 98.8448C158.393 99.5503 158.833 100.385 158.833 101.349C158.833 102.449 158.358 103.339 157.409 104.021C156.459 104.703 155.255 105.044 153.796 105.044H149.91V109.815ZM149.91 103.183H153.226C154.092 103.183 154.753 103.019 155.209 102.69C155.665 102.36 155.893 101.922 155.893 101.376C155.893 100.882 155.68 100.459 155.255 100.106C154.837 99.7531 154.077 99.5767 152.976 99.5767H149.91V103.183Z" fill="white" fill-opacity="0.995951"/>
</g>
<defs>
<clipPath id="clip0_117_2">
<rect width="267" height="110" fill="white"/>
</clipPath>
</defs>
</svg>
