<?xml version="1.0" encoding="UTF-8"?>
<svg id="_Слой_2" data-name="Слой 2" xmlns="http://www.w3.org/2000/svg" viewBox="0 0 512 400">
  <defs>
    <style>
      .ccls-1 {
        fill: #0047ab;
      }

      .ccls-2 {
        fill: #fff;
      }

      .ccls-3 {
        fill: #1e1e1e;
      }

      .ccls-4 {
        fill: #e41613;
      }
    </style>
  </defs>
  <g id="corner">
    <rect class="ccls-4" x="193.34" y="317.31" width="22" height="18" rx="3" ry="3"/>
    <path class="ccls-2" d="M201.82,330.51v-.98h2.38v-6.84l-2.38,1.78v-1.24l1.98-1.48h1.48v7.78h1.94v.98h-5.4Z"/>
  </g>
  <g id="corner-2" data-name="corner">
    <rect class="ccls-4" x="190.13" y="269.58" width="22" height="18" rx="3" ry="3"/>
    <path class="ccls-2" d="M198.56,282.78v-1l2.92-3.12c.42-.45.72-.85.9-1.2.18-.35.26-.7.26-1.03,0-.48-.14-.86-.41-1.15s-.65-.43-1.12-.43-.87.15-1.16.44c-.28.29-.43.69-.43,1.18h-1.08c.02-.53.14-.99.36-1.37.22-.39.53-.69.92-.89.39-.21.85-.31,1.38-.31s1.01.1,1.4.31c.39.21.7.5.91.88.22.38.32.83.32,1.35,0,.42-.11.86-.34,1.32-.23.46-.62.98-1.17,1.56l-2.36,2.47h3.98v.98h-5.29Z"/>
  </g>
  <g id="corner-3" data-name="corner">
    <rect class="ccls-4" x="80.3" y="302.36" width="22" height="18" rx="3" ry="3"/>
    <path class="ccls-2" d="M91.16,315.68c-.81,0-1.45-.23-1.92-.68-.47-.45-.71-1.07-.71-1.84h1.08c0,.48.14.86.42,1.14s.66.42,1.14.42.86-.14,1.14-.42c.28-.28.42-.66.42-1.14v-.6c0-.48-.14-.86-.42-1.14s-.66-.42-1.14-.42h-.95v-.94l2.15-2.28h-3.6v-.98h4.82v1.01l-2.4,2.56v-.32c.81,0,1.45.23,1.91.68s.7,1.07.7,1.84v.6c0,.78-.24,1.39-.71,1.84-.48.45-1.12.68-1.94.68Z"/>
  </g>
  <g id="corner-4" data-name="corner">
    <rect class="ccls-3" x="82.44" y="172.98" width="22" height="18" rx="3" ry="3"/>
    <path class="ccls-2" d="M94.64,186.18v-1.92h-3.96v-1.69l3.19-5.15h1.22l-3.34,5.39v.47h2.88v-2.14h1.08v5.04h-1.08Z"/>
  </g>
  <g id="corner-5" data-name="corner">
    <rect class="ccls-3" x="31.83" y="170.87" width="22" height="18" rx="3" ry="3"/>
    <path class="ccls-2" d="M42.75,184.19c-.81,0-1.45-.23-1.92-.68-.47-.45-.71-1.07-.71-1.84h1.08c0,.48.14.86.42,1.14.28.28.66.42,1.14.42s.86-.14,1.14-.42.42-.66.42-1.14v-.54c0-.48-.14-.86-.41-1.14-.27-.28-.64-.42-1.1-.42h-2.39v-4.26h4.67v.98h-3.66l.02,2.29h1.42c.81,0,1.43.22,1.87.67.44.44.66,1.07.66,1.88v.54c0,.78-.24,1.39-.71,1.84-.48.45-1.12.68-1.94.68Z"/>
  </g>
  <g id="corner-6" data-name="corner">
    <rect class="ccls-3" x="11.86" y="84.76" width="22" height="18" rx="3" ry="3"/>
    <path class="ccls-2" d="M22.87,98.08c-.56,0-1.05-.12-1.48-.35-.43-.24-.76-.56-1-.98-.24-.42-.36-.91-.36-1.46,0-.38.07-.78.22-1.18.14-.4.34-.83.59-1.27l2.03-3.64h1.2l-2.16,3.76.04.02c.1-.14.26-.24.47-.31s.44-.11.68-.11c.52,0,.97.11,1.36.34.39.23.69.54.91.94.22.4.33.86.33,1.39,0,.56-.12,1.05-.36,1.48-.24.43-.57.76-.99,1s-.91.36-1.47.36ZM22.86,97.12c.35,0,.66-.08.92-.23.26-.16.46-.37.61-.65.15-.28.22-.6.22-.97s-.07-.69-.22-.97c-.15-.28-.35-.5-.61-.65-.26-.16-.57-.23-.92-.23s-.65.08-.91.23c-.26.16-.47.37-.62.65-.15.28-.22.6-.22.97s.07.69.22.97c.15.28.35.5.62.65.26.16.57.23.91.23Z"/>
  </g>
  <g id="corner-7" data-name="corner">
    <rect class="ccls-3" x="87.94" y="65.07" width="22" height="18" rx="3" ry="3"/>
    <path class="ccls-2" d="M97.62,78.27l3.12-7.78h-3.34v1.42h-1.08v-2.4h5.57v1.01l-3.1,7.75h-1.18Z"/>
  </g>
  <g id="corner-8" data-name="corner">
    <rect class="ccls-1" x="222.76" y="250.03" width="22" height="18" rx="3" ry="3"/>
    <path class="ccls-2" d="M233.76,263.36c-.55,0-1.04-.11-1.46-.32-.42-.22-.75-.52-.99-.91-.24-.39-.35-.83-.35-1.34,0-.37.07-.7.22-1.01.14-.3.35-.56.61-.76s.57-.33.92-.39v-.04c-.46-.1-.82-.33-1.09-.69-.27-.36-.41-.77-.41-1.23s.11-.86.32-1.21c.22-.35.52-.62.91-.82.39-.2.83-.29,1.34-.29s.96.1,1.34.29.68.47.9.82c.22.35.32.75.32,1.21s-.14.88-.41,1.23c-.27.36-.64.59-1.09.69v.04c.35.06.66.19.92.39s.46.46.61.76c.14.3.22.64.22,1.01,0,.5-.12.95-.35,1.34-.24.39-.56.69-.98.91s-.91.32-1.47.32ZM233.76,262.38c.51,0,.93-.15,1.25-.45.32-.3.48-.69.48-1.17s-.16-.88-.48-1.18c-.32-.3-.74-.45-1.25-.45s-.93.15-1.25.45c-.32.3-.48.69-.48,1.18s.16.87.48,1.17c.32.3.74.45,1.25.45ZM233.76,258.17c.45,0,.81-.13,1.08-.4.27-.26.41-.61.41-1.03s-.14-.77-.41-1.03c-.27-.26-.63-.4-1.08-.4s-.8.13-1.07.4c-.28.26-.41.61-.41,1.03s.14.77.41,1.03c.28.26.63.4,1.07.4Z"/>
  </g>
  <g id="corner-9" data-name="corner">
    <rect class="ccls-1" x="252.24" y="209.99" width="22" height="18" rx="3" ry="3"/>
    <path class="ccls-2" d="M261.98,223.19l2.16-3.76-.04-.02c-.06.08-.14.15-.26.22-.12.06-.25.11-.4.15s-.32.05-.49.05c-.5,0-.95-.11-1.33-.34-.38-.23-.68-.54-.89-.94-.22-.4-.32-.86-.32-1.39,0-.57.12-1.06.36-1.49.24-.42.57-.76,1-1,.42-.24.91-.36,1.46-.36s1.06.12,1.49.35c.42.24.76.56,1,.98.24.42.36.91.36,1.46,0,.38-.07.78-.22,1.18-.14.4-.34.83-.59,1.27l-2.03,3.64h-1.26ZM263.24,218.99c.52,0,.94-.17,1.27-.52.32-.34.49-.79.49-1.34,0-.37-.07-.69-.22-.97-.15-.28-.35-.5-.61-.65-.26-.16-.57-.23-.92-.23s-.65.08-.91.23c-.26.16-.47.37-.62.65-.15.28-.22.6-.22.97s.07.69.22.97c.15.28.35.5.62.65.26.16.57.23.91.23Z"/>
  </g>
  <g id="corner-10" data-name="corner">
    <rect class="ccls-1" x="263.24" y="260.58" width="22" height="18" rx="3" ry="3"/>
    <g>
      <path class="ccls-2" d="M268.12,273.78v-.98h2.38v-6.84l-2.38,1.78v-1.24l1.98-1.48h1.48v7.78h1.94v.98h-5.4Z"/>
      <path class="ccls-2" d="M277.84,273.9c-.54,0-1-.11-1.4-.32-.4-.21-.7-.51-.92-.9-.22-.39-.32-.84-.32-1.36v-3.84c0-.53.11-.98.32-1.37s.52-.68.92-.89c.4-.21.86-.32,1.4-.32s1.01.11,1.4.32c.39.21.7.51.91.89s.32.84.32,1.37v3.84c0,.52-.11.97-.32,1.36-.22.39-.52.69-.92.9-.4.21-.86.32-1.4.32ZM277.84,272.98c.48,0,.87-.15,1.16-.46.29-.31.44-.71.44-1.19v-3.84c0-.49-.15-.89-.44-1.19-.29-.31-.68-.46-1.16-.46s-.87.15-1.16.46c-.29.31-.44.71-.44,1.19v3.84c0,.49.15.89.44,1.19.29.31.68.46,1.16.46ZM277.84,270.06c-.22,0-.39-.06-.52-.18-.13-.12-.2-.29-.2-.52s.07-.38.2-.5.31-.17.52-.17.39.06.52.17.2.28.2.5-.07.4-.2.52c-.13.12-.31.18-.52.18Z"/>
    </g>
  </g>
  <g id="corner-11" data-name="corner">
    <rect class="ccls-1" x="475.88" y="232.03" width="22" height="18" rx="3" ry="3"/>
    <g>
      <path class="ccls-2" d="M480.76,245.24v-.98h2.38v-6.84l-2.38,1.78v-1.24l1.98-1.48h1.48v7.78h1.94v.98h-5.4Z"/>
      <path class="ccls-2" d="M487.96,245.24v-.98h2.38v-6.84l-2.38,1.78v-1.24l1.98-1.48h1.48v7.78h1.94v.98h-5.4Z"/>
    </g>
  </g>
  <g>
    <path class="ccls-3" d="M355.11,327.81c-.56,0-1.05-.11-1.47-.32s-.74-.51-.97-.9c-.23-.39-.34-.85-.34-1.37v-3.82c0-.54.11-1,.34-1.38.23-.38.55-.68.97-.89s.91-.32,1.47-.32,1.06.11,1.47.32.73.51.97.9c.23.39.35.85.35,1.37h-1.51c0-.42-.11-.73-.33-.95-.22-.22-.53-.32-.94-.32s-.72.11-.95.32c-.22.22-.34.53-.34.95v3.82c0,.41.11.72.34.94.22.22.54.33.95.33s.72-.11.94-.33.33-.53.33-.94h1.51c0,.52-.12.98-.35,1.37-.23.39-.55.69-.97.91s-.9.32-1.47.32Z"/>
    <path class="ccls-3" d="M361.46,327.69v-7.4h-2.29v-1.36h6.1v1.36h-2.29v7.4h-1.51Z"/>
    <path class="ccls-3" d="M366.24,327.69l2.21-8.76h1.93l2.22,8.76h-1.54l-.48-2.12h-2.33l-.48,2.12h-1.54ZM368.53,324.34h1.78l-.53-2.35c-.09-.39-.16-.75-.23-1.06-.06-.32-.11-.55-.13-.69-.02.14-.07.37-.13.69-.06.32-.14.67-.23,1.05l-.53,2.36Z"/>
    <path class="ccls-3" d="M373.94,327.69v-8.76h2.92c.58,0,1.09.11,1.53.34.44.22.77.54,1.01.94.24.4.36.88.36,1.42s-.12,1.01-.37,1.42c-.24.41-.58.72-1.01.95-.43.22-.94.34-1.52.34h-1.42v3.36h-1.5ZM375.44,323.01h1.42c.42,0,.75-.13,1-.38.25-.26.38-.59.38-1s-.13-.75-.38-1c-.25-.25-.59-.38-1-.38h-1.42v2.76Z"/>
    <path class="ccls-3" d="M383.06,327.69v-7.4h-2.29v-1.36h6.1v1.36h-2.29v7.4h-1.51Z"/>
  </g>
  <circle class="ccls-3" cx="369.42" cy="302.58" r="7"/>
  <g>
    <path class="ccls-4" d="M115.91,270.94c-.56,0-1.05-.11-1.47-.32s-.74-.51-.97-.9c-.23-.39-.34-.85-.34-1.37v-3.82c0-.54.11-1,.34-1.38.23-.38.55-.68.97-.89s.91-.32,1.47-.32,1.06.11,1.47.32.73.51.97.9c.23.39.35.85.35,1.37h-1.51c0-.42-.11-.73-.33-.95-.22-.22-.53-.32-.94-.32s-.72.11-.95.32c-.22.22-.34.53-.34.95v3.82c0,.41.11.72.34.94.22.22.54.33.95.33s.72-.11.94-.33c.22-.22.33-.53.33-.94h1.51c0,.52-.12.98-.35,1.37-.23.39-.55.69-.97.91s-.9.32-1.47.32Z"/>
    <path class="ccls-4" d="M123.02,270.94c-.56,0-1.05-.11-1.46-.32s-.74-.52-.97-.92c-.23-.4-.34-.86-.34-1.4v-1.56c0-.54.11-1,.34-1.4.23-.4.55-.7.97-.92.42-.22.9-.32,1.46-.32s1.03.11,1.45.32c.41.22.73.52.96.91.23.39.34.84.34,1.36v1.2h-4.08v.46c0,.45.12.79.35,1.01.23.23.56.34.98.34.31,0,.58-.05.8-.16.22-.11.35-.27.39-.47h1.49c-.1.57-.4,1.02-.89,1.36-.49.34-1.08.51-1.79.51ZM124.33,267.04v-.36c0-.46-.11-.81-.33-1.06-.22-.25-.55-.37-.98-.37s-.76.13-.99.38c-.23.25-.34.61-.34,1.06v.23h2.75s-.11.12-.11.12Z"/>
    <path class="ccls-4" d="M127.64,270.82v-6.6h1.5v2.54h1.06l1.51-2.54h1.69l-1.92,3.19,2.04,3.41h-1.72l-1.61-2.7h-1.06v2.7h-1.5Z"/>
    <path class="ccls-4" d="M136.65,270.82v-5.24h-2.26v-1.36h6.02v1.36h-2.26v5.24h-1.51Z"/>
    <path class="ccls-4" d="M144.61,270.93c-.56,0-1.05-.11-1.46-.32s-.74-.52-.96-.92c-.22-.4-.34-.86-.34-1.4v-1.54c0-.54.11-1.01.34-1.4.22-.39.54-.7.96-.91s.9-.32,1.46-.32,1.06.11,1.47.32.73.52.95.91c.22.39.34.86.34,1.4v1.54c0,.54-.11,1-.34,1.4-.22.4-.54.7-.95.92s-.9.32-1.47.32ZM144.61,269.62c.4,0,.71-.11.93-.33.22-.22.33-.54.33-.95v-1.63c0-.42-.11-.74-.33-.96-.22-.22-.53-.32-.93-.32s-.7.11-.92.32-.34.54-.34.96v1.63c0,.42.11.73.34.95.22.22.53.33.92.33Z"/>
    <path class="ccls-4" d="M149.13,272.98v-8.76h1.46v1.33h.34l-.43.62c0-.64.17-1.15.52-1.52.34-.37.81-.56,1.39-.56.42,0,.8.11,1.12.32.32.21.58.51.76.88s.27.82.27,1.32v1.79c0,.5-.09.95-.27,1.33s-.43.68-.75.89-.7.32-1.13.32c-.58,0-1.05-.19-1.39-.56-.34-.38-.52-.88-.52-1.51l.43.64h-.35l.05,1.63v1.85h-1.5ZM151.85,269.65c.38,0,.68-.11.89-.32s.32-.53.32-.95v-1.7c0-.43-.11-.75-.32-.96s-.51-.31-.89-.31-.68.12-.89.35c-.21.23-.32.56-.32.98v1.58c0,.42.11.75.32.98.21.23.51.35.89.35Z"/>
    <path class="ccls-4" d="M163.62,270.82v-1.36h2.28v-5.95l-2.29,1.68v-1.68l2.02-1.45h1.78v7.4h1.84v1.36h-5.62Z"/>
  </g>
  <g>
    <path class="ccls-3" d="M57.52,135.48c-.56,0-1.05-.11-1.47-.32s-.74-.51-.97-.9c-.23-.39-.34-.85-.34-1.37v-3.82c0-.54.11-1,.34-1.38.23-.38.55-.68.97-.89s.91-.32,1.47-.32,1.06.11,1.47.32.73.51.97.9c.23.39.35.85.35,1.37h-1.51c0-.42-.11-.73-.33-.95-.22-.22-.53-.32-.94-.32s-.72.11-.95.32c-.22.22-.34.53-.34.95v3.82c0,.41.11.72.34.94.22.22.54.33.95.33s.72-.11.94-.33c.22-.22.33-.53.33-.94h1.51c0,.52-.12.98-.35,1.37-.23.39-.55.69-.97.91s-.9.32-1.47.32Z"/>
    <path class="ccls-3" d="M64.64,135.48c-.56,0-1.05-.11-1.46-.32s-.74-.52-.97-.92c-.23-.4-.34-.86-.34-1.4v-1.56c0-.54.11-1,.34-1.4.23-.4.55-.7.97-.92.42-.22.9-.32,1.46-.32s1.03.11,1.45.32c.41.22.73.52.96.91.23.39.34.84.34,1.36v1.2h-4.08v.46c0,.45.12.79.35,1.01.23.23.56.34.98.34.31,0,.58-.05.8-.16.22-.11.35-.27.39-.47h1.49c-.1.57-.4,1.02-.89,1.36-.49.34-1.08.51-1.79.51ZM65.95,131.58v-.36c0-.46-.11-.81-.33-1.06-.22-.25-.55-.37-.98-.37s-.76.13-.99.38c-.23.25-.34.61-.34,1.06v.23h2.75s-.11.12-.11.12Z"/>
    <path class="ccls-3" d="M69.26,135.36v-6.6h1.5v2.54h1.06l1.51-2.54h1.69l-1.92,3.19,2.04,3.41h-1.72l-1.61-2.7h-1.06v2.7h-1.5Z"/>
    <path class="ccls-3" d="M78.27,135.36v-5.24h-2.26v-1.36h6.02v1.36h-2.26v5.24h-1.51Z"/>
    <path class="ccls-3" d="M86.23,135.47c-.56,0-1.05-.11-1.46-.32s-.74-.52-.96-.92c-.22-.4-.34-.86-.34-1.4v-1.54c0-.54.11-1.01.34-1.4.22-.39.54-.7.96-.91s.9-.32,1.46-.32,1.06.11,1.47.32.73.52.95.91c.22.39.34.86.34,1.4v1.54c0,.54-.11,1-.34,1.4-.22.4-.54.7-.95.92s-.9.32-1.47.32ZM86.23,134.16c.4,0,.71-.11.93-.33.22-.22.33-.54.33-.95v-1.63c0-.42-.11-.74-.33-.96-.22-.22-.53-.32-.93-.32s-.7.11-.92.32-.34.54-.34.96v1.63c0,.42.11.73.34.95.22.22.53.33.92.33Z"/>
    <path class="ccls-3" d="M90.75,137.52v-8.76h1.46v1.33h.34l-.43.62c0-.64.17-1.15.52-1.52.34-.37.81-.56,1.39-.56.42,0,.8.11,1.12.32.32.21.58.51.76.88s.27.82.27,1.32v1.79c0,.5-.09.95-.27,1.33s-.43.68-.75.89-.7.32-1.13.32c-.58,0-1.05-.19-1.39-.56-.34-.38-.52-.88-.52-1.51l.43.64h-.35l.05,1.63v1.85h-1.5ZM93.46,134.19c.38,0,.68-.11.89-.32s.32-.53.32-.95v-1.7c0-.43-.11-.75-.32-.96s-.51-.31-.89-.31-.68.12-.89.35c-.21.23-.32.56-.32.98v1.58c0,.42.11.75.32.98.21.23.51.35.89.35Z"/>
    <path class="ccls-3" d="M105.11,135.36v-1.36l3.16-3.23c.26-.28.46-.55.58-.82.12-.27.19-.54.19-.81,0-.39-.11-.71-.34-.95-.23-.24-.53-.37-.92-.37s-.71.13-.94.38c-.24.25-.35.59-.35,1h-1.5c0-.55.12-1.03.36-1.43.24-.4.57-.72,1-.95.42-.23.92-.34,1.48-.34s1.05.11,1.46.32c.41.22.73.52.96.91.23.39.34.84.34,1.36,0,.45-.11.9-.32,1.34-.21.45-.56.91-1.05,1.39l-2.21,2.2h3.68v1.36h-5.57Z"/>
  </g>
  <g>
    <path class="ccls-1" d="M352.95,221.9c-.56,0-1.05-.11-1.47-.32s-.74-.51-.97-.9c-.23-.39-.34-.85-.34-1.37v-3.82c0-.54.11-1,.34-1.38.23-.38.55-.68.97-.89s.91-.32,1.47-.32,1.06.11,1.47.32.73.51.97.9c.23.39.35.85.35,1.37h-1.51c0-.42-.11-.73-.33-.95-.22-.22-.53-.32-.94-.32s-.72.11-.95.32c-.22.22-.34.53-.34.95v3.82c0,.41.11.72.34.94.22.22.54.33.95.33s.72-.11.94-.33c.22-.22.33-.53.33-.94h1.51c0,.52-.12.98-.35,1.37-.23.39-.55.69-.97.91s-.9.32-1.47.32Z"/>
    <path class="ccls-1" d="M360.06,221.9c-.56,0-1.05-.11-1.46-.32s-.74-.52-.97-.92c-.23-.4-.34-.86-.34-1.4v-1.56c0-.54.11-1,.34-1.4.23-.4.55-.7.97-.92.42-.22.9-.32,1.46-.32s1.03.11,1.45.32c.41.22.73.52.96.91.23.39.34.84.34,1.36v1.2h-4.08v.46c0,.45.12.79.35,1.01.23.23.56.34.98.34.31,0,.58-.05.8-.16.22-.11.35-.27.39-.47h1.49c-.1.57-.4,1.02-.89,1.36-.49.34-1.08.51-1.79.51ZM361.37,218v-.36c0-.46-.11-.81-.33-1.06-.22-.25-.55-.37-.98-.37s-.76.13-.99.38c-.23.25-.34.61-.34,1.06v.23h2.75s-.11.12-.11.12Z"/>
    <path class="ccls-1" d="M364.68,221.78v-6.6h1.5v2.54h1.06l1.51-2.54h1.69l-1.92,3.19,2.04,3.41h-1.72l-1.61-2.7h-1.06v2.7h-1.5Z"/>
    <path class="ccls-1" d="M373.7,221.78v-5.24h-2.26v-1.36h6.02v1.36h-2.26v5.24h-1.51Z"/>
    <path class="ccls-1" d="M381.65,221.89c-.56,0-1.05-.11-1.46-.32s-.74-.52-.96-.92c-.22-.4-.34-.86-.34-1.4v-1.54c0-.54.11-1.01.34-1.4.22-.39.54-.7.96-.91s.9-.32,1.46-.32,1.06.11,1.47.32.73.52.95.91c.22.39.34.86.34,1.4v1.54c0,.54-.11,1-.34,1.4-.22.4-.54.7-.95.92s-.9.32-1.47.32ZM381.65,220.58c.4,0,.71-.11.93-.33.22-.22.33-.54.33-.95v-1.63c0-.42-.11-.74-.33-.96-.22-.22-.53-.32-.93-.32s-.7.11-.92.32-.34.54-.34.96v1.63c0,.42.11.73.34.95.22.22.53.33.92.33Z"/>
    <path class="ccls-1" d="M386.17,223.94v-8.76h1.46v1.33h.34l-.43.62c0-.64.17-1.15.52-1.52.34-.37.81-.56,1.39-.56.42,0,.8.11,1.12.32.32.21.58.51.76.88s.27.82.27,1.32v1.79c0,.5-.09.95-.27,1.33s-.43.68-.75.89-.7.32-1.13.32c-.58,0-1.05-.19-1.39-.56-.34-.38-.52-.88-.52-1.51l.43.64h-.35l.05,1.63v1.85h-1.5ZM388.89,220.61c.38,0,.68-.11.89-.32s.32-.53.32-.95v-1.7c0-.43-.11-.75-.32-.96s-.51-.31-.89-.31-.68.12-.89.35c-.21.23-.32.56-.32.98v1.58c0,.42.11.75.32.98.21.23.51.35.89.35Z"/>
    <path class="ccls-1" d="M403.17,221.9c-.86,0-1.54-.23-2.05-.68s-.76-1.07-.76-1.84h1.51c0,.38.12.67.35.89.23.22.55.32.96.32s.72-.11.95-.32.35-.51.35-.89v-.66c0-.39-.11-.7-.34-.92-.23-.22-.55-.33-.95-.33h-1.1v-1.2l2.02-1.93h-3.42v-1.32h5.06v1.27l-2.63,2.52.07-.62c.86,0,1.55.23,2.05.68s.76,1.07.76,1.85v.66c0,.78-.25,1.39-.76,1.84s-1.19.68-2.06.68Z"/>
  </g>
</svg>