<?xml version="1.0" encoding="UTF-8"?>
<svg id="_Слой_1" data-name="Слой 1" xmlns="http://www.w3.org/2000/svg" viewBox="0 0 512 400">
  <defs>
    <style>
      .ccls-1 {
        fill: #0047ab;
      }

      .ccls-2 {
        fill: #fff;
      }

      .ccls-3 {
        fill: #1e1e1e;
      }

      .ccls-4 {
        fill: #e41613;
      }
    </style>
  </defs>
  <g id="corner">
    <rect class="ccls-4" x="56.94" y="313.86" width="22" height="18" rx="3" ry="3"/>
    <path class="ccls-2" d="M65.42,327.06v-.98h2.38v-6.84l-2.38,1.78v-1.24l1.98-1.48h1.48v7.78h1.94v.98h-5.4Z"/>
  </g>
  <g id="corner-2" data-name="corner">
    <rect class="ccls-4" x="32.62" y="230.66" width="22" height="18" rx="3" ry="3"/>
    <path class="ccls-2" d="M41.05,243.86v-1l2.92-3.12c.42-.45.72-.85.9-1.2s.26-.7.26-1.03c0-.48-.14-.86-.41-1.15-.28-.28-.65-.43-1.12-.43s-.87.15-1.16.44c-.28.29-.43.69-.43,1.18h-1.08c.02-.53.14-.99.36-1.37s.53-.69.92-.89.85-.31,1.38-.31,1.01.1,1.4.31.7.5.91.88c.22.38.32.83.32,1.35,0,.42-.11.86-.34,1.32s-.62.98-1.17,1.56l-2.36,2.47h3.98v.98h-5.29Z"/>
  </g>
  <g id="corner-3" data-name="corner">
    <rect class="ccls-4" x="74.8" y="168.81" width="22" height="18" rx="3" ry="3"/>
    <path class="ccls-2" d="M85.67,182.13c-.81,0-1.45-.23-1.92-.68s-.71-1.07-.71-1.84h1.08c0,.48.14.86.42,1.14.28.28.66.42,1.14.42s.86-.14,1.14-.42c.28-.28.42-.66.42-1.14v-.6c0-.48-.14-.86-.42-1.14-.28-.28-.66-.42-1.14-.42h-.95v-.94l2.15-2.28h-3.6v-.98h4.82v1.01l-2.4,2.56v-.32c.81,0,1.45.23,1.91.68.47.45.7,1.07.7,1.84v.6c0,.78-.24,1.39-.71,1.84-.48.45-1.12.68-1.94.68Z"/>
  </g>
  <g id="corner-4" data-name="corner">
    <rect class="ccls-4" x="85.8" y="145.17" width="22" height="18" rx="3" ry="3"/>
    <path class="ccls-2" d="M98,158.37v-1.92h-3.96v-1.69l3.19-5.15h1.22l-3.34,5.39v.47h2.88v-2.14h1.08v5.04h-1.08Z"/>
  </g>
  <g id="corner-5" data-name="corner">
    <rect class="ccls-4" x="115.88" y="134.16" width="22" height="18" rx="3" ry="3"/>
    <path class="ccls-2" d="M126.8,147.48c-.81,0-1.45-.23-1.92-.68s-.71-1.07-.71-1.84h1.08c0,.48.14.86.42,1.14.28.28.66.42,1.14.42s.86-.14,1.14-.42c.28-.28.42-.66.42-1.14v-.54c0-.48-.14-.86-.41-1.14s-.64-.42-1.1-.42h-2.39v-4.26h4.67v.98h-3.66l.02,2.29h1.42c.81,0,1.43.22,1.87.67.44.44.66,1.07.66,1.88v.54c0,.78-.24,1.39-.71,1.84s-1.12.68-1.94.68Z"/>
  </g>
  <g id="corner-6" data-name="corner">
    <rect class="ccls-4" x="190.02" y="103.31" width="22" height="18" rx="3" ry="3"/>
    <path class="ccls-2" d="M201.03,116.63c-.56,0-1.05-.12-1.48-.35-.43-.24-.76-.56-1-.98-.24-.42-.36-.91-.36-1.46,0-.38.07-.78.22-1.18.14-.4.34-.83.59-1.27l2.03-3.64h1.2l-2.16,3.76.04.02c.1-.14.26-.24.47-.31s.44-.11.68-.11c.52,0,.97.11,1.36.34.39.23.69.54.91.94.22.4.33.86.33,1.39,0,.56-.12,1.05-.36,1.48-.24.43-.57.76-.99,1s-.91.36-1.47.36ZM201.02,115.67c.35,0,.66-.08.92-.23.26-.16.46-.37.61-.65.15-.28.22-.6.22-.97s-.07-.69-.22-.97-.35-.5-.61-.65c-.26-.16-.57-.23-.92-.23s-.65.08-.91.23-.47.37-.62.65-.22.6-.22.97.07.69.22.97c.15.28.35.5.62.65s.57.23.91.23Z"/>
  </g>
  <g id="corner-7" data-name="corner">
    <rect class="ccls-3" x="371.01" y="33.29" width="22" height="18" rx="3" ry="3"/>
    <path class="ccls-2" d="M380.69,46.49l3.12-7.78h-3.34v1.42h-1.08v-2.4h5.57v1.01l-3.1,7.75h-1.18Z"/>
  </g>
  <g id="corner-8" data-name="corner">
    <rect class="ccls-3" x="384.76" y="85.31" width="22" height="18" rx="3" ry="3"/>
    <path class="ccls-2" d="M395.76,98.63c-.55,0-1.04-.11-1.46-.32-.42-.22-.75-.52-.99-.91-.24-.39-.35-.83-.35-1.34,0-.37.07-.7.22-1.01.14-.3.35-.56.61-.76s.57-.33.92-.39v-.04c-.46-.1-.82-.33-1.09-.69-.27-.36-.41-.77-.41-1.23s.11-.86.32-1.21c.22-.35.52-.62.91-.82.39-.2.83-.29,1.34-.29s.96.1,1.34.29.68.47.9.82c.22.35.32.75.32,1.21s-.14.88-.41,1.23c-.27.36-.64.59-1.09.69v.04c.35.06.66.19.92.39s.46.46.61.76c.14.3.22.64.22,1.01,0,.5-.12.95-.35,1.34-.24.39-.56.69-.98.91s-.91.32-1.47.32ZM395.76,97.66c.51,0,.93-.15,1.25-.45.32-.3.48-.69.48-1.17s-.16-.88-.48-1.18c-.32-.3-.74-.45-1.25-.45s-.93.15-1.25.45c-.32.3-.48.69-.48,1.18s.16.87.48,1.17c.32.3.74.45,1.25.45ZM395.76,93.44c.45,0,.81-.13,1.08-.4.27-.26.41-.61.41-1.03s-.14-.77-.41-1.03c-.27-.26-.63-.4-1.08-.4s-.8.13-1.07.4c-.28.26-.41.61-.41,1.03s.14.77.41,1.03c.28.26.63.4,1.07.4Z"/>
  </g>
  <g id="corner-9" data-name="corner">
    <rect class="ccls-3" x="418.23" y="37.49" width="22" height="18" rx="3" ry="3"/>
    <path class="ccls-2" d="M427.97,50.69l2.16-3.76-.04-.02c-.06.08-.14.15-.26.22-.12.06-.25.11-.4.15s-.32.05-.49.05c-.5,0-.95-.11-1.33-.34-.38-.23-.68-.54-.89-.94-.22-.4-.32-.86-.32-1.39,0-.57.12-1.06.36-1.49.24-.42.57-.76,1-1,.42-.24.91-.36,1.46-.36s1.06.12,1.49.35c.42.24.76.56,1,.98.24.42.36.91.36,1.46,0,.38-.07.78-.22,1.18-.14.4-.34.83-.59,1.27l-2.03,3.64h-1.26ZM429.23,46.49c.52,0,.94-.17,1.27-.52.32-.34.49-.79.49-1.34,0-.37-.07-.69-.22-.97-.15-.28-.35-.5-.61-.65-.26-.16-.57-.23-.92-.23s-.65.08-.91.23c-.26.16-.47.37-.62.65-.15.28-.22.6-.22.97s.07.69.22.97c.15.28.35.5.62.65.26.16.57.23.91.23Z"/>
  </g>
  <g id="corner-10" data-name="corner">
    <rect class="ccls-3" x="480.31" y="145.72" width="22" height="18" rx="3" ry="3"/>
    <g>
      <path class="ccls-2" d="M485.19,158.92v-.98h2.38v-6.84l-2.38,1.78v-1.24l1.98-1.48h1.48v7.78h1.94v.98h-5.4Z"/>
      <path class="ccls-2" d="M494.91,159.04c-.54,0-1-.11-1.4-.32-.4-.21-.7-.51-.92-.9-.22-.39-.32-.84-.32-1.36v-3.84c0-.53.11-.98.32-1.37.22-.38.52-.68.92-.89.4-.21.86-.32,1.4-.32s1.01.11,1.4.32c.39.21.7.51.91.89s.32.84.32,1.37v3.84c0,.52-.11.97-.32,1.36-.22.39-.52.69-.92.9-.4.21-.86.32-1.4.32ZM494.91,158.11c.48,0,.87-.15,1.16-.46.29-.31.44-.71.44-1.19v-3.84c0-.49-.15-.89-.44-1.19-.29-.31-.68-.46-1.16-.46s-.87.15-1.16.46c-.29.31-.44.71-.44,1.19v3.84c0,.49.15.89.44,1.19.29.31.68.46,1.16.46ZM494.91,155.2c-.22,0-.39-.06-.52-.18-.13-.12-.2-.29-.2-.52s.07-.38.2-.5c.13-.12.31-.17.52-.17s.39.06.52.17.2.28.2.5-.07.4-.2.52c-.13.12-.31.18-.52.18Z"/>
    </g>
  </g>
  <g id="corner-11" data-name="corner">
    <rect class="ccls-1" x="421.25" y="311.36" width="22" height="18" rx="3" ry="3"/>
    <g>
      <path class="ccls-2" d="M426.13,324.56v-.98h2.38v-6.84l-2.38,1.78v-1.24l1.98-1.48h1.48v7.78h1.94v.98h-5.4Z"/>
      <path class="ccls-2" d="M435.87,324.68c-.56,0-1.05-.12-1.48-.35-.43-.24-.76-.56-1-.98s-.36-.91-.36-1.46c0-.38.07-.78.22-1.18.14-.4.34-.83.59-1.27l2.03-3.64h1.2l-2.16,3.76.04.02c.1-.14.26-.24.47-.31s.44-.11.68-.11c.52,0,.97.11,1.36.34.39.23.69.54.91.94.22.4.33.86.33,1.39,0,.56-.12,1.05-.36,1.48-.24.43-.57.76-.99,1s-.91.36-1.47.36ZM435.85,323.72c.35,0,.66-.08.92-.23s.46-.37.61-.65c.15-.28.22-.6.22-.97s-.07-.69-.22-.97c-.15-.28-.35-.5-.61-.65s-.57-.23-.92-.23-.65.08-.91.23c-.26.16-.47.37-.62.65-.15.28-.22.6-.22.97s.07.69.22.97c.15.28.35.5.62.65.26.16.57.23.91.23Z"/>
    </g>
  </g>
  <g id="corner-12" data-name="corner">
    <rect class="ccls-3" x="418.23" y="123.02" width="22" height="18" rx="3" ry="3"/>
    <g>
      <path class="ccls-2" d="M423.11,136.22v-.98h2.38v-6.84l-2.38,1.78v-1.24l1.98-1.48h1.48v7.78h1.94v.98h-5.4Z"/>
      <path class="ccls-2" d="M430.31,136.22v-.98h2.38v-6.84l-2.38,1.78v-1.24l1.98-1.48h1.48v7.78h1.94v.98h-5.4Z"/>
    </g>
  </g>
  <g id="corner-13" data-name="corner">
    <rect class="ccls-3" x="288.89" y="162.01" width="22" height="18" rx="3" ry="3"/>
    <g>
      <path class="ccls-2" d="M293.77,175.21v-.98h2.38v-6.84l-2.38,1.78v-1.24l1.98-1.48h1.48v7.78h1.94v.98h-5.4Z"/>
      <path class="ccls-2" d="M300.92,175.21v-1l2.92-3.12c.42-.45.72-.85.9-1.2.18-.35.26-.7.26-1.03,0-.48-.14-.86-.41-1.15s-.65-.43-1.12-.43-.87.15-1.16.44c-.28.29-.43.69-.43,1.18h-1.08c.02-.53.14-.99.36-1.37.22-.39.53-.69.92-.89.39-.21.85-.31,1.38-.31s1.01.1,1.4.31c.39.21.7.5.91.88.22.38.32.83.32,1.35,0,.42-.11.86-.34,1.32-.23.46-.62.98-1.17,1.56l-2.36,2.47h3.98v.98h-5.29Z"/>
    </g>
  </g>
  <g id="corner-14" data-name="corner">
    <rect class="ccls-3" x="429.23" y="213.73" width="22" height="18" rx="3" ry="3"/>
    <g>
      <path class="ccls-2" d="M434.11,226.93v-.98h2.38v-6.84l-2.38,1.78v-1.24l1.98-1.48h1.48v7.78h1.94v.98h-5.4Z"/>
      <path class="ccls-2" d="M443.7,227.05c-.81,0-1.45-.23-1.92-.68-.47-.45-.71-1.07-.71-1.84h1.08c0,.48.14.86.42,1.14s.66.42,1.14.42.86-.14,1.14-.42c.28-.28.42-.66.42-1.14v-.6c0-.48-.14-.86-.42-1.14s-.66-.42-1.14-.42h-.95v-.94l2.15-2.28h-3.6v-.98h4.82v1.01l-2.4,2.56v-.32c.81,0,1.45.23,1.91.68s.7,1.07.7,1.84v.6c0,.78-.24,1.39-.71,1.84-.48.45-1.12.68-1.94.68Z"/>
    </g>
  </g>
  <g id="corner-15" data-name="corner">
    <rect class="ccls-3" x="384.76" y="254.82" width="22" height="18" rx="3" ry="3"/>
    <g>
      <path class="ccls-2" d="M389.64,268.02v-.98h2.38v-6.84l-2.38,1.78v-1.24l1.98-1.48h1.48v7.78h1.94v.98h-5.4Z"/>
      <path class="ccls-2" d="M400.56,268.02v-1.92h-3.96v-1.69l3.19-5.15h1.22l-3.34,5.39v.47h2.88v-2.14h1.08v5.04h-1.08Z"/>
    </g>
  </g>
  <g id="corner-16" data-name="corner">
    <rect class="ccls-3" x="458.31" y="261.5" width="22" height="18" rx="3" ry="3"/>
    <g>
      <path class="ccls-2" d="M463.19,274.7v-.98h2.38v-6.84l-2.38,1.78v-1.24l1.98-1.48h1.48v7.78h1.94v.98h-5.4Z"/>
      <path class="ccls-2" d="M472.83,274.82c-.81,0-1.45-.23-1.92-.68-.47-.45-.71-1.07-.71-1.84h1.08c0,.48.14.86.42,1.14.28.28.66.42,1.14.42s.86-.14,1.14-.42.42-.66.42-1.14v-.54c0-.48-.14-.86-.41-1.14-.27-.28-.64-.42-1.1-.42h-2.39v-4.26h4.67v.98h-3.66l.02,2.29h1.42c.81,0,1.43.22,1.87.67.44.44.66,1.07.66,1.88v.54c0,.78-.24,1.39-.71,1.84-.48.45-1.12.68-1.94.68Z"/>
    </g>
  </g>
  <g id="corner-17" data-name="corner">
    <rect class="ccls-1" x="329.47" y="221.56" width="22" height="18" rx="3" ry="3"/>
    <g>
      <path class="ccls-2" d="M334.35,234.76v-.98h2.38v-6.84l-2.38,1.78v-1.24l1.98-1.48h1.48v7.78h1.94v.98h-5.4Z"/>
      <path class="ccls-2" d="M342.75,234.76l3.12-7.78h-3.34v1.42h-1.08v-2.4h5.57v1.01l-3.1,7.75h-1.18Z"/>
    </g>
  </g>
  <g id="corner-18" data-name="corner">
    <rect class="ccls-1" x="245" y="195.69" width="22" height="18" rx="3" ry="3"/>
    <g>
      <path class="ccls-2" d="M249.88,208.89v-.98h2.38v-6.84l-2.38,1.78v-1.24l1.98-1.48h1.48v7.78h1.94v.98h-5.4Z"/>
      <path class="ccls-2" d="M259.6,209.01c-.55,0-1.04-.11-1.46-.32s-.75-.52-.99-.91c-.24-.39-.35-.83-.35-1.34,0-.37.07-.7.22-1.01.14-.3.35-.56.61-.76.26-.2.57-.33.92-.39v-.04c-.46-.1-.82-.33-1.09-.69-.27-.36-.41-.77-.41-1.23s.11-.86.32-1.21c.22-.35.52-.62.91-.82s.83-.29,1.34-.29.96.1,1.34.29c.38.2.68.47.9.82.22.35.32.75.32,1.21s-.14.88-.41,1.23c-.27.36-.64.59-1.09.69v.04c.35.06.66.19.92.39s.46.46.61.76c.14.3.22.64.22,1.01,0,.5-.12.95-.35,1.34-.24.39-.56.69-.98.91-.42.22-.91.32-1.47.32ZM259.6,208.04c.51,0,.93-.15,1.25-.45s.48-.69.48-1.17-.16-.88-.48-1.18c-.32-.3-.74-.45-1.25-.45s-.93.15-1.25.45c-.32.3-.48.69-.48,1.18s.16.87.48,1.17.74.45,1.25.45ZM259.6,203.83c.45,0,.81-.13,1.08-.4.27-.26.41-.61.41-1.03s-.14-.77-.41-1.03c-.27-.26-.63-.4-1.08-.4s-.8.13-1.07.4c-.28.26-.41.61-.41,1.03s.14.77.41,1.03c.28.26.63.4,1.07.4Z"/>
    </g>
  </g>
  <g id="corner-19" data-name="corner">
    <rect class="ccls-1" x="133" y="268.14" width="22" height="18" rx="3" ry="3"/>
    <g>
      <path class="ccls-2" d="M137.88,281.34v-.98h2.38v-6.84l-2.38,1.78v-1.24l1.98-1.48h1.48v7.78h1.94v.98h-5.4Z"/>
      <path class="ccls-2" d="M146.33,281.34l2.16-3.76-.04-.02c-.06.08-.14.15-.26.22-.12.06-.25.11-.4.15-.15.04-.32.05-.49.05-.5,0-.95-.11-1.33-.34-.38-.23-.68-.54-.89-.94-.22-.4-.32-.86-.32-1.39,0-.57.12-1.06.36-1.49.24-.42.57-.76,1-1,.42-.24.91-.36,1.46-.36s1.06.12,1.49.35c.42.24.76.56,1,.98.24.42.36.91.36,1.46,0,.38-.07.78-.22,1.18-.14.4-.34.83-.59,1.27l-2.03,3.64h-1.26ZM147.6,277.14c.52,0,.94-.17,1.27-.52.32-.34.49-.79.49-1.34,0-.37-.07-.69-.22-.97-.15-.28-.35-.5-.61-.65-.26-.16-.57-.23-.92-.23s-.65.08-.91.23c-.26.16-.47.37-.62.65-.15.28-.22.6-.22.97s.07.69.22.97.35.5.62.65c.26.16.57.23.91.23Z"/>
    </g>
  </g>
  <g id="corner-20" data-name="corner">
    <rect class="ccls-1" x="141.6" y="219.54" width="22" height="18" rx="3" ry="3"/>
    <g>
      <path class="ccls-2" d="M146.43,232.74v-1l2.92-3.12c.42-.45.72-.85.9-1.2s.26-.7.26-1.03c0-.48-.14-.86-.41-1.15-.28-.28-.65-.43-1.12-.43s-.87.15-1.16.44c-.28.29-.43.69-.43,1.18h-1.08c.02-.53.14-.99.36-1.37s.53-.69.92-.89.85-.31,1.38-.31,1.01.1,1.4.31.7.5.91.88c.22.38.32.83.32,1.35,0,.42-.11.86-.34,1.32s-.62.98-1.17,1.56l-2.36,2.47h3.98v.98h-5.29Z"/>
      <path class="ccls-2" d="M156.2,232.86c-.54,0-1-.11-1.4-.32s-.7-.51-.92-.9c-.22-.39-.32-.84-.32-1.36v-3.84c0-.53.11-.98.32-1.37.22-.38.52-.68.92-.89s.86-.32,1.4-.32,1.01.11,1.4.32.7.51.91.89.32.84.32,1.37v3.84c0,.52-.11.97-.32,1.36-.22.39-.52.69-.92.9s-.86.32-1.4.32ZM156.2,231.93c.48,0,.87-.15,1.16-.46.29-.31.44-.71.44-1.19v-3.84c0-.49-.15-.89-.44-1.19-.29-.31-.68-.46-1.16-.46s-.87.15-1.16.46c-.29.31-.44.71-.44,1.19v3.84c0,.49.15.89.44,1.19.29.31.68.46,1.16.46ZM156.2,229.02c-.22,0-.39-.06-.52-.18-.13-.12-.2-.29-.2-.52s.07-.38.2-.5c.13-.12.31-.17.52-.17s.39.06.52.17.2.28.2.5-.07.4-.2.52c-.13.12-.31.18-.52.18Z"/>
    </g>
  </g>
  <g>
    <path class="ccls-3" d="M97.5,296.64c-.56,0-1.05-.11-1.47-.32s-.74-.51-.97-.9c-.23-.39-.34-.85-.34-1.37v-3.82c0-.54.11-1,.34-1.38s.55-.68.97-.89.91-.32,1.47-.32,1.06.11,1.47.32.73.51.97.9c.23.39.35.85.35,1.37h-1.51c0-.42-.11-.73-.33-.95-.22-.22-.53-.32-.94-.32s-.72.11-.95.32c-.22.22-.34.53-.34.95v3.82c0,.41.11.72.34.94.22.22.54.33.95.33s.72-.11.94-.33c.22-.22.33-.53.33-.94h1.51c0,.52-.12.98-.35,1.37-.23.39-.55.69-.97.91s-.9.32-1.47.32Z"/>
    <path class="ccls-3" d="M103.85,296.52v-7.4h-2.29v-1.36h6.1v1.36h-2.29v7.4h-1.51Z"/>
    <path class="ccls-3" d="M108.62,296.52l2.21-8.76h1.93l2.22,8.76h-1.54l-.48-2.12h-2.33l-.48,2.12h-1.54ZM110.91,293.18h1.78l-.53-2.35c-.09-.39-.16-.75-.23-1.06-.06-.32-.11-.55-.13-.69-.02.14-.07.37-.13.69-.06.32-.14.67-.23,1.05l-.53,2.36Z"/>
    <path class="ccls-3" d="M116.33,296.52v-8.76h2.92c.58,0,1.09.11,1.53.34s.77.54,1.01.94c.24.4.36.88.36,1.42s-.12,1.01-.37,1.42c-.24.41-.58.72-1.01.95-.43.22-.94.34-1.52.34h-1.42v3.36h-1.5ZM117.83,291.84h1.42c.42,0,.75-.13,1-.38.25-.26.38-.59.38-1s-.13-.75-.38-1c-.25-.25-.59-.38-1-.38h-1.42v2.76Z"/>
    <path class="ccls-3" d="M125.45,296.52v-7.4h-2.29v-1.36h6.1v1.36h-2.29v7.4h-1.51Z"/>
  </g>
  <circle class="ccls-3" cx="111.8" cy="264.39" r="7"/>
  <g>
    <path class="ccls-4" d="M136.69,195.81c-.56,0-1.05-.11-1.47-.32s-.74-.51-.97-.9c-.23-.39-.34-.85-.34-1.37v-3.82c0-.54.11-1,.34-1.38s.55-.68.97-.89.91-.32,1.47-.32,1.06.11,1.47.32.73.51.97.9c.23.39.35.85.35,1.37h-1.51c0-.42-.11-.73-.33-.95-.22-.22-.53-.32-.94-.32s-.72.11-.95.32c-.22.22-.34.53-.34.95v3.82c0,.41.11.72.34.94.22.22.54.33.95.33s.72-.11.94-.33c.22-.22.33-.53.33-.94h1.51c0,.52-.12.98-.35,1.37-.23.39-.55.69-.97.91s-.9.32-1.47.32Z"/>
    <path class="ccls-4" d="M143.81,195.81c-.56,0-1.05-.11-1.46-.32s-.74-.52-.97-.92c-.23-.4-.34-.86-.34-1.4v-1.56c0-.54.11-1,.34-1.4.23-.4.55-.7.97-.92.42-.22.9-.32,1.46-.32s1.03.11,1.45.32c.41.22.73.52.96.91.23.39.34.84.34,1.36v1.2h-4.08v.46c0,.45.12.79.35,1.01s.56.34.98.34c.31,0,.58-.05.8-.16.22-.11.35-.27.39-.47h1.49c-.1.57-.4,1.02-.89,1.36s-1.08.51-1.79.51ZM145.12,191.91v-.36c0-.46-.11-.81-.33-1.06-.22-.25-.55-.37-.98-.37s-.76.13-.99.38-.34.61-.34,1.06v.23h2.75s-.11.12-.11.12Z"/>
    <path class="ccls-4" d="M148.43,195.69v-6.6h1.5v2.54h1.06l1.51-2.54h1.69l-1.92,3.19,2.04,3.41h-1.72l-1.61-2.7h-1.06v2.7h-1.5Z"/>
    <path class="ccls-4" d="M157.44,195.69v-5.24h-2.26v-1.36h6.02v1.36h-2.26v5.24h-1.51Z"/>
    <path class="ccls-4" d="M165.4,195.8c-.56,0-1.05-.11-1.46-.32-.42-.22-.74-.52-.96-.92-.22-.4-.34-.86-.34-1.4v-1.54c0-.54.11-1.01.34-1.4.22-.39.54-.7.96-.91.42-.22.9-.32,1.46-.32s1.06.11,1.47.32.73.52.95.91c.22.39.34.86.34,1.4v1.54c0,.54-.11,1-.34,1.4-.22.4-.54.7-.95.92s-.9.32-1.47.32ZM165.4,194.49c.4,0,.71-.11.93-.33.22-.22.33-.54.33-.95v-1.63c0-.42-.11-.74-.33-.96-.22-.22-.53-.32-.93-.32s-.7.11-.92.32c-.22.22-.34.54-.34.96v1.63c0,.42.11.73.34.95.22.22.53.33.92.33Z"/>
    <path class="ccls-4" d="M169.92,197.85v-8.76h1.46v1.33h.34l-.43.62c0-.64.17-1.15.52-1.52.34-.37.81-.56,1.39-.56.42,0,.8.11,1.12.32.32.21.58.51.76.88.18.38.27.82.27,1.32v1.79c0,.5-.09.95-.27,1.33-.18.38-.43.68-.75.89-.32.21-.7.32-1.13.32-.58,0-1.05-.19-1.39-.56-.34-.38-.52-.88-.52-1.51l.43.64h-.35l.05,1.63v1.85h-1.5ZM172.63,194.52c.38,0,.68-.11.89-.32s.32-.53.32-.95v-1.7c0-.43-.11-.75-.32-.96s-.51-.31-.89-.31-.68.12-.89.35c-.21.23-.32.56-.32.98v1.58c0,.42.11.75.32.98.21.23.51.35.89.35Z"/>
    <path class="ccls-4" d="M184.4,195.69v-1.36h2.28v-5.95l-2.29,1.68v-1.68l2.02-1.45h1.78v7.4h1.84v1.36h-5.62Z"/>
  </g>
  <g>
    <path class="ccls-3" d="M358.15,172.28c-.56,0-1.05-.11-1.47-.32s-.74-.51-.97-.9c-.23-.39-.34-.85-.34-1.37v-3.82c0-.54.11-1,.34-1.38.23-.38.55-.68.97-.89s.91-.32,1.47-.32,1.06.11,1.47.32.73.51.97.9c.23.39.35.85.35,1.37h-1.51c0-.42-.11-.73-.33-.95-.22-.22-.53-.32-.94-.32s-.72.11-.95.32c-.22.22-.34.53-.34.95v3.82c0,.41.11.72.34.94.22.22.54.33.95.33s.72-.11.94-.33c.22-.22.33-.53.33-.94h1.51c0,.52-.12.98-.35,1.37-.23.39-.55.69-.97.91s-.9.32-1.47.32Z"/>
    <path class="ccls-3" d="M365.27,172.28c-.56,0-1.05-.11-1.46-.32s-.74-.52-.97-.92c-.23-.4-.34-.86-.34-1.4v-1.56c0-.54.11-1,.34-1.4.23-.4.55-.7.97-.92.42-.22.9-.32,1.46-.32s1.03.11,1.45.32c.41.22.73.52.96.91.23.39.34.84.34,1.36v1.2h-4.08v.46c0,.45.12.79.35,1.01.23.23.56.34.98.34.31,0,.58-.05.8-.16.22-.11.35-.27.39-.47h1.49c-.1.57-.4,1.02-.89,1.36-.49.34-1.08.51-1.79.51ZM366.58,168.38v-.36c0-.46-.11-.81-.33-1.06-.22-.25-.55-.37-.98-.37s-.76.13-.99.38c-.23.25-.34.61-.34,1.06v.23h2.75s-.11.12-.11.12Z"/>
    <path class="ccls-3" d="M369.89,172.16v-6.6h1.5v2.54h1.06l1.51-2.54h1.69l-1.92,3.19,2.04,3.41h-1.72l-1.61-2.7h-1.06v2.7h-1.5Z"/>
    <path class="ccls-3" d="M378.9,172.16v-5.24h-2.26v-1.36h6.02v1.36h-2.26v5.24h-1.51Z"/>
    <path class="ccls-3" d="M386.86,172.27c-.56,0-1.05-.11-1.46-.32s-.74-.52-.96-.92c-.22-.4-.34-.86-.34-1.4v-1.54c0-.54.11-1.01.34-1.4.22-.39.54-.7.96-.91s.9-.32,1.46-.32,1.06.11,1.47.32.73.52.95.91c.22.39.34.86.34,1.4v1.54c0,.54-.11,1-.34,1.4-.22.4-.54.7-.95.92s-.9.32-1.47.32ZM386.86,170.96c.4,0,.71-.11.93-.33.22-.22.33-.54.33-.95v-1.63c0-.42-.11-.74-.33-.96-.22-.22-.53-.32-.93-.32s-.7.11-.92.32-.34.54-.34.96v1.63c0,.42.11.73.34.95.22.22.53.33.92.33Z"/>
    <path class="ccls-3" d="M391.38,174.32v-8.76h1.46v1.33h.34l-.43.62c0-.64.17-1.15.52-1.52.34-.37.81-.56,1.39-.56.42,0,.8.11,1.12.32.32.21.58.51.76.88s.27.82.27,1.32v1.79c0,.5-.09.95-.27,1.33s-.43.68-.75.89-.7.32-1.13.32c-.58,0-1.05-.19-1.39-.56-.34-.38-.52-.88-.52-1.51l.43.64h-.35l.05,1.63v1.85h-1.5ZM394.09,170.98c.38,0,.68-.11.89-.32s.32-.53.32-.95v-1.7c0-.43-.11-.75-.32-.96s-.51-.31-.89-.31-.68.12-.89.35c-.21.23-.32.56-.32.98v1.58c0,.42.11.75.32.98.21.23.51.35.89.35Z"/>
    <path class="ccls-3" d="M405.74,172.16v-1.36l3.16-3.23c.26-.28.46-.55.58-.82.12-.27.19-.54.19-.81,0-.39-.11-.71-.34-.95-.23-.24-.53-.37-.92-.37s-.71.13-.94.38c-.24.25-.35.59-.35,1h-1.5c0-.55.12-1.03.36-1.43.24-.4.57-.72,1-.95.42-.23.92-.34,1.48-.34s1.05.11,1.46.32c.41.22.73.52.96.91.23.39.34.84.34,1.36,0,.45-.11.9-.32,1.34-.21.45-.56.91-1.05,1.39l-2.21,2.2h3.68v1.36h-5.57Z"/>
  </g>
  <g>
    <path class="ccls-1" d="M241.61,254.94c-.56,0-1.05-.11-1.47-.32s-.74-.51-.97-.9c-.23-.39-.34-.85-.34-1.37v-3.82c0-.54.11-1,.34-1.38s.55-.68.97-.89.91-.32,1.47-.32,1.06.11,1.47.32.73.51.97.9c.23.39.35.85.35,1.37h-1.51c0-.42-.11-.73-.33-.95-.22-.22-.53-.32-.94-.32s-.72.11-.95.32c-.22.22-.34.53-.34.95v3.82c0,.41.11.72.34.94.22.22.54.33.95.33s.72-.11.94-.33c.22-.22.33-.53.33-.94h1.51c0,.52-.12.98-.35,1.37-.23.39-.55.69-.97.91s-.9.32-1.47.32Z"/>
    <path class="ccls-1" d="M248.72,254.94c-.56,0-1.05-.11-1.46-.32s-.74-.52-.97-.92c-.23-.4-.34-.86-.34-1.4v-1.56c0-.54.11-1,.34-1.4.23-.4.55-.7.97-.92.42-.22.9-.32,1.46-.32s1.03.11,1.45.32c.41.22.73.52.96.91.23.39.34.84.34,1.36v1.2h-4.08v.46c0,.45.12.79.35,1.01s.56.34.98.34c.31,0,.58-.05.8-.16.22-.11.35-.27.39-.47h1.49c-.1.57-.4,1.02-.89,1.36s-1.08.51-1.79.51ZM250.03,251.04v-.36c0-.46-.11-.81-.33-1.06-.22-.25-.55-.37-.98-.37s-.76.13-.99.38-.34.61-.34,1.06v.23h2.75s-.11.12-.11.12Z"/>
    <path class="ccls-1" d="M253.34,254.82v-6.6h1.5v2.54h1.06l1.51-2.54h1.69l-1.92,3.19,2.04,3.41h-1.72l-1.61-2.7h-1.06v2.7h-1.5Z"/>
    <path class="ccls-1" d="M262.36,254.82v-5.24h-2.26v-1.36h6.02v1.36h-2.26v5.24h-1.51Z"/>
    <path class="ccls-1" d="M270.31,254.93c-.56,0-1.05-.11-1.46-.32-.42-.22-.74-.52-.96-.92-.22-.4-.34-.86-.34-1.4v-1.54c0-.54.11-1.01.34-1.4.22-.39.54-.7.96-.91.42-.22.9-.32,1.46-.32s1.06.11,1.47.32.73.52.95.91c.22.39.34.86.34,1.4v1.54c0,.54-.11,1-.34,1.4-.22.4-.54.7-.95.92s-.9.32-1.47.32ZM270.31,253.62c.4,0,.71-.11.93-.33.22-.22.33-.54.33-.95v-1.63c0-.42-.11-.74-.33-.96s-.53-.32-.93-.32-.7.11-.92.32c-.22.22-.34.54-.34.96v1.63c0,.42.11.73.34.95.22.22.53.33.92.33Z"/>
    <path class="ccls-1" d="M274.83,256.98v-8.76h1.46v1.33h.34l-.43.62c0-.64.17-1.15.52-1.52s.81-.56,1.39-.56c.42,0,.8.11,1.12.32.32.21.58.51.76.88.18.38.27.82.27,1.32v1.79c0,.5-.09.95-.27,1.33-.18.38-.43.68-.75.89-.32.21-.7.32-1.13.32-.58,0-1.05-.19-1.39-.56s-.52-.88-.52-1.51l.43.64h-.35l.05,1.63v1.85h-1.5ZM277.55,253.65c.38,0,.68-.11.89-.32s.32-.53.32-.95v-1.7c0-.43-.11-.75-.32-.96s-.51-.31-.89-.31-.68.12-.89.35c-.21.23-.32.56-.32.98v1.58c0,.42.11.75.32.98.21.23.51.35.89.35Z"/>
    <path class="ccls-1" d="M291.83,254.94c-.86,0-1.54-.23-2.05-.68-.51-.45-.76-1.07-.76-1.84h1.51c0,.38.12.67.35.89.23.22.55.32.96.32s.72-.11.95-.32c.23-.22.35-.51.35-.89v-.66c0-.39-.11-.7-.34-.92-.23-.22-.55-.33-.95-.33h-1.1v-1.2l2.02-1.93h-3.42v-1.32h5.06v1.27l-2.63,2.52.07-.62c.86,0,1.55.23,2.05.68s.76,1.07.76,1.85v.66c0,.78-.25,1.39-.76,1.84s-1.19.68-2.06.68Z"/>
  </g>
</svg>