<?xml version="1.0" encoding="UTF-8"?>
<svg id="_Слой_2" data-name="Слой 2" xmlns="http://www.w3.org/2000/svg" viewBox="0 0 427.45 272.08">
  <defs>
    <style>
      .cls-1 {
        fill: none;
        stroke: currentColor;
        stroke-miterlimit: 10;
        stroke-width: 5px;
      }
    </style>
  </defs>
  <g id="_Слой_4" data-name="Слой 4">
    <path id="Sao_Paolo" data-name="Sao Paolo" class="cls-1" d="M212.99,264.71s-27.06,7.57-57.78,0c-30.73-7.57-90.8-21.32-90.8-21.32,0,0-43.95-3.59-59.62-93.78,0,0-2.75-12.04,2.06-23.16,4.82-11.12,10.78-29.12,10.78-29.12,0,0,3.9-11.24,17.43-3.55,13.53,7.68,59.73,34.62,59.73,34.62,0,0,32.9,25.57,5.96,56.06l-27.86,27.75s-10.76,7.64-3.42,14.63c4.54,4.32,15.92,4.79,31.86-1.79,12.5-5.16,23.04-9.4,36.34-26.83,21.55-28.24,45.75-.75,33.42,16.51-11.4,15.96-12.75,17.3-5.75,25.04,2.11,2.33,6.83,5.8,32.75-.58,24.82-6.11,46.25-9.21,45.86-43.09-.28-24.58,6.51-13.59-116.48-98.29-3.39-2.34-6.37-5.2-8.82-8.52-6.22-8.45-16.4-25.41-13.05-42.41,4.74-24,7.18-32.1,7.18-32.1,0,0,4.28-13.61,22.17-10.24,17.89,3.36,235.57,55.18,235.57,55.18,0,0,49.34,16.59,45.71,66.19-1.54,21-26.01,33.05-7.64,47.08,27.5,21.01,13.12,33.2-12.84,40.82-15.42,4.53-182.75,50.9-182.75,50.9Z"/>
  </g>
</svg>