<?xml version="1.0" encoding="UTF-8"?>
<svg id="_Слой_2" data-name="Слой 2" xmlns="http://www.w3.org/2000/svg" viewBox="0 0 471.16 273.7">
  <defs>
    <style>
      .cls-1 {
        fill: none;
        stroke: currentColor;
        stroke-miterlimit: 10;
        stroke-width: 5px;
      }
    </style>
  </defs>
  <g id="_Слой_5" data-name="Слой 5">
    <path id="Silverstone" class="cls-1" d="M247.21,199.57s-10.89-6.31-10.89-16.97,1.03-38.9,1.03-38.9c0,0,0-14.98-18.5-31.8-25.58-23.25-29.86-34.04-14.75-38.37,12-3.44,22.24-7.82,22.24-12.29,0-10.14-47.54-23.1-64.66-1.32-9.33,11.86-78.22,102.12-92.28,120.54-2.84,3.73-4.81,8.08-5.49,12.72-1.12,7.73,1.11,17.38,19.27,17.38,30.27,0,27.29,16.43,18.96,24.76-10.45,10.45-78.79-17.7-83.31-53.89-4.13-33.02-14.68-107.08-14.68-107.08,0,0-3.67-19.03,24.54-27.29s54.34-15.59,74.06-16.51,32.56.92,50.68-10.09c26.92-16.36,49.67,18.82,70.64-8.94,6.41-8.48,14.14-8.48,20.28-6.36,16.62,5.75,12.25,25.76,39.48,38.54,19.88,9.33,140.28,66.96,167.82,80.14,9.45,4.52,28.3,24.63,2.4,41.54-27.37,17.86-54.85,44.43-62.45,51.97-1.26,1.25-17.84,12.69-4.89,21.71,10.89,7.58-6.33,26.27-21.3,29.51-6.34,1.38-14.89,2.1-20.82-1.77-11.56-7.54-97.37-67.26-97.38-67.26Z"/>
  </g>
</svg>