<?xml version="1.0" encoding="UTF-8"?>
<svg id="_Слой_2" data-name="Слой 2" xmlns="http://www.w3.org/2000/svg" viewBox="0 0 454.77 280.99">
  <defs>
    <style>
      .cls-1 {
        fill: none;
        stroke: currentColor;
        stroke-miterlimit: 10;
        stroke-width: 5px;
      }
    </style>
  </defs>
  <g id="_Слой_1-2" data-name="Слой 1">
    <path id="Spa" class="cls-1" d="M85.5,203.4S7.2,259.93,4.22,252.47c-2.33-5.83,14.79-36.69,14.79-36.69,0,0,9.64-22.32,28.2-39.52,10.39-9.63,19.41-20.64,35.62-36.08,15.41-14.68,3.17-22.04,33.1-28.51,4.53-.98,8.9-2.63,12.94-4.89,2.4-1.34,4.94-2.94,7-4.67,5.66-4.74,29.66-24.61,40.36-30.73s19.04-11.46,53.93-21.86c0,0,102.15-38.98,113-43.57,23.67-10,16.47,21.94,39.59,7.03,11.62-7.49,21.55-4.89,25.68,1.22s37.76,41.12,40.82,48.15c5.54,12.74-4.9,23.08-17.96,12.96-10.2-7.91-15.36-33.87-35.08-23.66-37.49,19.41-86.29,26.68-90.92,28.82-4.91,2.27-14.9,7.11-13.99,21.1,3.03,46.2,15.57,36.6,69.48,53.77,24.42,7.78,38.84,8.66,31.18,31.18-6.08,17.89-3.78,19.03,8.83,27.29,22.03,14.42,49.26,13.99,36.69,36.57-8.21,14.76-10.43,24.82-30.27,26.45-42.04,3.44-89.09-59.2-96.42-75.97-10.82-24.78-67.99-38.98-76.93-38.98-19.83,0-42.75,25.9-86.56,32.22-16.81,2.42-34.77,10.49-32.37-.42,1.99-9.02-1.22-12.19-9.71-5.24s-19.72,14.94-19.72,14.94Z"/>
  </g>
</svg>