<?xml version="1.0" encoding="UTF-8"?>
<svg id="_Слой_3" data-name="Слой 3" xmlns="http://www.w3.org/2000/svg" viewBox="0 0 512 400">
  <defs>
    <style>
      .cls-1 {
        fill: none;
        stroke: currentColor;
        stroke-miterlimit: 10;
        stroke-width: 8px;
        stroke-linecap: round;
        stroke-linejoin: round;
      }
    </style>
  </defs>
  <path id="Barcelona" class="cls-1" d="M92.01,271.31s-15.59-.31-14.52-21.55c1.07-21.25-21.55-25.68-34.55-30.11-53.93-18.4-29.2-90.96,31.95-90.96h84.93c11.29,0,24.69,12.81,18.11,27.97-8.1,18.65-20.48,24.61-37.91,24.61h-59.95c-1.97,0-3.93.44-5.68,1.36-32.76,17.3,54.88,58.53,77.51,59.6,8.17.39,24.41.99,37.23.42,14.45-.65,13.66-21.19,12.82-29.07-.23-2.17.14-4.35,1.07-6.32,10.57-22.33,40.33-60.06,40.34-60.08,0,0,16.2-20.18,43.11-6.73,24.7,12.35,126.34,75.86,142.81,86.18,3.61,2.26,24.8,12.32,24.24-11.73-.58-24.63-24.25-33.11-27.88-34.17-35.24-10.34-20.24-38.9-6.51-42.53,0,0,5.73-3.9,23.39,3.67,29.75,12.75,56.29,14.74,56.29,36.57,0,12.66-1.18,45.55-1.7,59.56-.44,11.64-8.16,33.3-30.51,33.3-25.61,0-374.56,0-374.56,0Z"/>
</svg>