<?xml version="1.0" encoding="UTF-8"?>
<svg id="_Слой_2" data-name="Слой 2" xmlns="http://www.w3.org/2000/svg" viewBox="0 0 512 400">
  <defs>
    <style>
      .cls-1 {
        fill: none;
        stroke: currentColor;
        stroke-miterlimit: 10;
        stroke-width: 8px;
        stroke-linecap: round;
        stroke-linejoin: round;
      }
    </style>
  </defs>
  <path id="Monza" class="cls-1" d="M382.32,302.28l-171.48,2.87s-7.18.46-6.73-5.66c.63-8.43-14.69,7.34-49.22,6.73-25.83-.46-58.62-4.05-69.63-54.5-15.3-70.11-9.69-74-17.2-75.36-5.04-.92-4.66-2.75-8.1-11.39-10.41-26.14-35.41-56.65-7.95-62.75,19.61-4.36,40.93-8.03,40.93-8.03,0,0,4.3-1.26,6.42.52s45.59,61.09,45.59,61.09c0,0,51.29,51.9,87.29,81.71,0,0,4.78,4.74,7.87,4.51,6.46-.48,20.68-5.82,28.32,6.11,3.06,4.78,15.63,2.98,15.63,2.98l167.16.04c21.14,0,26.77,16.18,15.59,30.04-19.93,24.7-84.5,21.1-84.5,21.1Z"/>
</svg>