<svg width="80" height="110" viewBox="0 0 80 110" fill="none" xmlns="http://www.w3.org/2000/svg">
<g clip-path="url(#clip0_157_191)">
<path d="M37.8272 2.70082C38.2223 2.89725 38.3704 3.04457 38.7655 3.14279C39.1111 3.241 39.605 3.48654 39.7037 3.19189C39.8519 2.89725 39.6544 2.50439 39.4074 2.16064C39.0124 1.52225 38.8148 1.37493 38.2716 0.491002C38.1729 0.294573 38.0741 0.0981445 37.8766 0.0981445C37.8766 0.0981445 37.8272 0.736537 37.6297 1.12939C37.4815 1.47314 37.0865 1.71868 37.1358 1.96422C37.1852 2.20975 37.4321 2.50439 37.8272 2.70082Z" fill="black"/>
<path d="M79.1111 44.7859C78.6666 45.3751 78.4691 46.5537 77.8271 47.5359C76.9383 48.9109 75.6543 50.5805 75.0123 50.5805C74.6666 50.5805 74.5679 49.7948 74.5679 49.7948C74.5679 49.7948 74.1234 48.4689 74.8642 46.7992C75.4074 45.6207 75.7037 45.2769 76.395 44.393C77.037 43.5582 77.4321 43.1162 77.8765 42.2323C78.2716 41.4466 78.3703 41.2992 78.6173 40.0716C78.6666 39.7769 78.5679 39.1385 78.2716 39.1876C77.8765 39.1876 76.7901 41.5448 75.6543 42.8707C74.5679 44.0984 72.5432 45.6698 72.5432 45.6698C72.5432 45.6698 72.3457 45.8171 72.3457 45.4242C72.2963 45.0805 72.2469 44.0492 72.4444 43.1162C72.642 42.1832 72.9382 41.2501 73.7778 39.826C74.716 38.2055 75.9012 37.076 76.4938 36.4867C76.7407 36.2412 77.4815 35.7992 77.0864 35.5537C76.7407 35.3573 75.7037 36.2412 74.9136 36.8305C73.9259 37.5671 73.5802 37.7635 72.5926 38.9421C71.6049 40.1207 71.358 40.6117 71.358 40.6117C71.358 40.6117 70.4197 42.1341 70.1728 43.6073C69.9259 45.0805 69.9259 45.9153 69.9259 45.9153C69.9259 45.9153 69.9259 47.2412 70.0741 48.0269C70.1728 48.8617 70.5185 50.1385 70.5185 50.1385C70.5185 50.1385 71.0123 51.5626 71.2099 52.4466C71.4074 53.3305 71.7531 55.9332 71.7531 55.9332C71.7531 55.9332 72 57.7992 71.8518 59.5671C71.7037 61.335 71.5555 62.3662 71.358 62.9064C71.1605 63.4466 70.6173 64.8707 69.7284 65.8528C68.8889 66.7859 68.6913 66.9332 68.6913 66.9332C68.6913 66.9332 67.8025 67.6698 67.0617 68.0626C66.321 68.4555 65.2346 68.9466 64.7407 69.0939C64.2469 69.1921 63.5555 69.2412 63.5062 69.2412H62.8642L62.6666 69.0939L62.5679 68.701C62.5679 68.701 62.0741 66.7859 61.4815 65.5582C60.9876 64.5269 59.9506 63.1028 59.9506 63.1028C59.9506 63.1028 58.1728 60.6966 56.7901 59.3707C55.2099 57.7992 53.4321 56.6207 52.3457 55.7859C51.9506 55.4912 51.0617 54.951 51.0617 54.951C51.0617 54.951 47.4568 51.3662 46.1728 48.518C45.2839 46.5537 44.6913 45.1296 44.9383 42.9689C44.9876 42.4778 45.1852 41.5448 45.2839 41.5448L45.9259 41.7412C45.9753 41.7903 46.5679 42.3305 47.1111 42.5269C47.4074 42.6251 47.9506 42.7234 47.9506 42.7234C47.9506 42.7234 48.395 42.7725 48.642 42.8216C48.8889 42.9198 49.3333 43.0671 49.6296 43.2144C49.9259 43.3617 50.3703 43.6564 50.3703 43.6564L51.2099 44.2948L52.0987 44.9823C52.0987 44.9823 52.5926 45.326 52.7407 45.3751C52.8889 45.4242 52.9876 45.4734 53.037 45.4734H53.2346C53.2346 45.4734 53.4321 45.4242 53.4815 45.2278C53.5308 44.9823 53.2346 45.1787 52.7901 44.6876C52.2963 44.2457 52.0987 43.8528 52.0987 43.8528C52.0987 43.8528 52 43.46 51.6049 43.018C51.2099 42.576 50.716 42.1832 50.716 42.1832C50.716 42.1832 50.3703 41.9376 49.8765 41.7903C49.3827 41.643 49.2345 41.643 49.1852 41.4466C49.1358 41.2501 49.7778 41.3484 49.7778 41.3484C49.7778 41.3484 50.5185 41.4466 51.1111 41.7412C51.7037 42.0359 52.0494 42.3796 52.0494 42.3796L52.4444 42.7234L52.6913 42.9689L52.9383 43.1162C52.9383 43.1162 53.1852 43.3617 53.2346 43.018C53.2839 42.7234 53.1852 42.4778 53.1358 42.4287L52.8889 42.1832L51.9012 41.3484C51.6049 41.0537 51.4074 40.8573 51.1111 40.6609C50.8148 40.4644 50.3704 40.1698 49.8271 39.9734C49.3333 39.7769 49.037 39.826 48.5432 39.5805C48.1975 39.4332 47.9012 39.335 47.7037 39.0403C47.6543 38.9912 47.4074 38.7948 47.8518 38.893C48.2963 38.9912 48.5926 39.1385 49.0864 39.2367C49.8765 39.4332 50.3703 39.4332 51.1111 39.6787C51.4074 39.7769 51.8025 39.9734 51.8025 39.9734L52.7407 40.3662C52.7407 40.3662 54.0247 41.0537 54.9136 41.1028C55.8024 41.1519 56.5432 40.9555 56.8395 40.8082C57.1358 40.71 57.679 40.3662 57.8271 40.2189C57.9753 40.0716 58.0741 39.9242 58.0741 39.9242L58.1728 39.6787V39.4823C57.9259 39.1876 57.4321 39.9734 56.642 40.1207C55.8024 40.268 55.8518 40.3662 55.3086 40.268C54.716 40.1698 54.3703 40.0225 53.9259 39.5805C53.1358 38.8439 52.8395 38.1564 51.8025 37.7144C51.358 37.518 50.5679 37.3216 50.5679 37.3216C50.5679 37.3216 49.4815 36.9778 48.8889 36.6341C48.4444 36.3885 47.5062 36.2412 47.8025 35.8484C47.9506 35.6519 49.1358 36.3394 50.0247 36.4376C50.6666 36.5359 51.1111 36.4867 51.6049 36.4867C52.0987 36.4867 52.7901 36.3394 52.8889 36.3394C52.9876 36.2903 53.3827 36.3394 53.7284 36.4376C54.0741 36.5359 54.2716 36.6832 54.6173 36.8305C54.9629 36.9778 55.358 37.2234 55.4568 37.2234L55.6543 37.2725L55.7531 37.1742L55.8024 37.076L55.7531 36.9778L55.6049 36.8796L55.3086 36.6832C55.3086 36.6832 54.8642 36.4376 54.4691 36.0448C54.0741 35.6519 53.7284 35.21 53.1358 35.0135C52.5432 34.8171 51.8518 34.7189 51.8518 34.7189L51.1605 34.6698L50.8642 34.6207C50.8642 34.6207 50.3704 34.4734 50.7654 34.3751C51.1605 34.2769 51.358 34.2278 51.4568 34.2278C51.5062 34.1787 52.1975 34.1296 52.5926 34.2769C52.9876 34.4242 53.6296 34.768 53.679 34.768C53.7284 34.8171 54.321 35.2591 54.9629 35.4064C55.6049 35.5537 56.4444 35.6028 56.4444 35.6028L56.8395 35.5046L57.037 35.4555L57.1852 35.3573L57.1358 35.1117C57.1358 35.1117 57.1358 34.9153 56.8395 34.8662C56.5432 34.8171 55.9506 34.7189 55.4074 34.326C54.8642 33.9332 54.4691 33.5403 54.4691 33.5403C54.4691 33.5403 54.0741 33.1966 53.2839 33.0001C52.5432 32.8037 52.2963 32.8037 52.2963 32.8037L52.0494 32.7055L51.5062 32.46C51.5062 32.46 51.2592 32.3126 51.0617 32.0671C50.8642 31.8216 50.5679 31.3796 51.4074 31.6251C52.2469 31.8707 52.4444 32.018 52.4444 32.018C52.4444 32.018 52.8889 32.46 53.2839 32.5091C53.5308 32.5582 53.7284 32.6073 53.8765 32.4109C54.1234 32.1653 53.4321 31.8707 52.9383 31.5269C52.5432 31.2814 52.1481 30.643 52.1481 30.643C52.1481 30.643 51.8518 30.3975 52.2963 30.4957C52.7407 30.5939 53.5308 31.085 53.5308 31.085C53.5308 31.085 53.9259 31.2814 54.1234 31.3305C54.2716 31.3796 54.6666 31.6251 54.8642 31.7234C55.0123 31.7725 55.4568 31.8707 55.7531 32.018C56.1481 32.2635 56.3457 32.6564 56.5432 32.8037C56.7407 32.951 56.8889 33.1966 57.1358 33.2457C57.3827 33.2948 57.4321 33.393 57.5802 33.2948C57.7284 33.1966 57.7778 33.1475 57.7778 33.1475C57.7778 33.1475 57.8271 33.0492 57.5802 32.9019C57.3333 32.7546 57.037 32.3617 57.037 32.3617L56.9383 32.1653L56.8889 31.9689L56.642 31.576L56.1975 30.9376C56.1975 30.9376 55.5062 30.0046 54.8642 29.6609C54.2716 29.3171 53.8271 29.1207 53.8271 29.1207C53.8271 29.1207 53.5308 28.9734 53.3827 28.8751C53.1358 28.6787 53.037 28.5314 52.8395 28.2859C52.5926 27.9912 52.4938 27.7948 52.1975 27.5001C51.6543 26.96 49.9753 26.6653 50.6173 26.2725C50.9629 26.076 51.4074 26.1742 51.6049 26.2234C51.8024 26.2725 52.2469 26.4689 52.6913 26.6162C52.9876 26.7144 53.1852 26.7144 53.4815 26.8126C53.7778 26.9109 54.1234 26.96 54.2716 27.0582C54.4197 27.1564 54.5679 27.3528 54.6666 27.4019C54.716 27.451 55.1111 28.0894 55.8024 28.4332C56.4938 28.7769 56.8395 29.0225 57.5308 29.0716C58.0741 29.1207 58.9629 28.9242 58.9629 28.9242C58.9629 28.9242 59.2099 28.826 59.0123 28.5805C58.7654 28.335 58.7654 28.2859 58.5679 28.2367C57.7778 27.9421 57.1358 28.0403 56.5432 27.451C56.2963 27.2055 56.1975 27.1564 56 26.7635C55.8025 26.3707 55.9012 26.2725 55.7531 26.0269C55.6543 25.7814 55.4074 25.4376 55.4074 25.4376C55.4074 25.4376 54.6666 24.5537 53.8765 24.1117C53.037 23.6698 52.4444 23.2278 52.3457 23.1296C52.1975 23.0314 51.9012 22.6385 51.9012 22.6385L51.6543 22.2457L51.5062 21.951C51.4074 21.4109 52.395 22.0984 52.9383 22.2948C53.8271 22.5894 54.2716 22.9823 55.1605 23.2769C55.6543 23.4242 55.9506 23.4242 56.4444 23.6207C57.2839 23.9644 57.5308 24.7992 58.4197 24.8975C58.9136 24.9466 59.9012 25.143 59.7037 24.701C59.5062 24.21 58.5185 24.21 58.0247 23.6207C57.7778 23.3751 57.7778 23.1296 57.5308 22.8841C57.1358 22.393 56.1975 21.951 56.1975 21.951C56.1975 21.951 55.9012 21.7055 55.5555 21.018C55.2592 20.3305 54.5185 19.8394 53.1852 19.201C52.2963 18.7591 50.5185 18.6609 51.2099 18.2189C51.6049 17.9242 51.9506 17.9734 52.4938 18.1207C53.037 18.3171 53.2345 18.5626 53.679 18.7591C54.1234 18.9555 54.321 19.0046 54.4197 19.0537C54.5185 19.1028 54.8642 19.2501 55.0123 19.2501C55.1111 19.2992 55.8518 19.3975 56.0494 19.4466L57.037 19.6921L57.8271 19.9867C57.8271 19.9867 58.2222 20.1341 58.4691 20.1341C58.716 20.1341 59.1111 20.0359 59.1111 20.0359L59.4074 19.8394L59.4568 19.7412C59.4568 19.7412 59.6049 19.4957 59.2099 19.4466C58.8642 19.3975 58.6666 19.3975 58.6173 19.3975L58.2716 19.2992L58.1234 19.2501C58.1234 19.2501 57.4321 18.71 56.8395 18.4644C56.1975 18.2189 56.0987 18.1698 56.0987 18.1698L55.8518 18.1207L55.5555 18.0716C55.5555 18.0716 55.3086 18.0716 54.9136 17.7278C54.5185 17.3841 54.3704 17.1876 54.0247 16.8439L53.5802 16.4019C53.5802 16.4019 53.1852 16.1073 53.1852 15.8617C53.2345 15.4689 54.0741 16.3037 54.0741 16.3037L54.6666 16.6966C54.6666 16.6966 55.1605 17.0403 56.0494 17.0894C56.9383 17.1385 58.0247 16.8439 58.0247 16.8439C58.0247 16.8439 58.1728 16.7457 58.6666 16.893C59.1605 17.0403 59.5555 17.335 59.5555 17.335L59.9506 17.6787L60.5432 18.3171L60.642 18.268C60.6913 18.2189 60.9383 17.9734 60.4938 17.4332C60.0494 16.893 59.3086 16.4019 59.3086 16.4019C59.3086 16.4019 58.321 15.8126 57.3333 15.6162C56.3457 15.4198 55.9012 15.4198 55.9012 15.4198C55.9012 15.4198 55.1605 15.4198 54.716 14.9287C54.2716 14.4376 53.9753 13.9466 53.9753 13.9466L53.8271 13.2591C53.8271 13.2591 53.5802 12.9644 53.0864 12.768C52.642 12.5716 52.1481 12.2769 52.1481 12.2769C52.1481 12.2769 51.4074 12.0314 51.358 11.6876C51.2099 11.0492 52.5926 11.6876 53.3333 11.835C54.0247 11.9823 54.321 12.2278 55.0123 12.3751C55.6049 12.5225 55.9506 12.5716 56.5926 12.5225C56.9383 12.5225 57.1358 12.4734 57.4815 12.4242C57.8271 12.4242 58.0741 12.3751 58.4197 12.4242C58.9136 12.5225 59.1111 12.768 59.6049 12.9644C59.9012 13.1117 60.0494 13.2591 60.395 13.3082C60.6913 13.3573 61.2839 13.5537 61.1852 13.2591L61.037 13.0626C60.7901 12.7189 60.4938 12.7189 60.1975 12.4734C59.5555 11.9823 59.2592 11.5894 58.5185 11.2457C58.0247 11.0001 57.7284 10.9019 57.1852 10.8037C56.7901 10.7546 56.4938 10.8528 56.0987 10.7546C55.6543 10.6073 55.5062 10.4109 55.0617 10.1653C54.3703 9.77246 53.9753 9.42871 53.2346 9.13407C52.7407 8.93764 51.9012 8.74121 51.9012 8.74121L51.5555 8.6921L51.4074 8.64299C50.716 8.39746 52.642 7.85728 53.5308 7.61174C53.9753 7.51353 54.1728 7.41532 54.6173 7.46442C55.0123 7.51353 55.4568 8.05371 55.9012 7.80817C56.5432 7.46442 55.1605 6.53139 54.716 6.38407C54.1234 6.13853 53.0864 6.33496 53.0864 6.33496L50.8148 6.28585L50.1728 6.18764C50.1728 6.18764 49.7778 6.18764 49.4815 5.84389C49.1852 5.50014 48.0494 4.12514 46.7654 3.92871C45.4321 3.73228 45.037 3.92871 44.9383 3.83049C43.8024 2.06264 42.6173 1.66978 41.7284 0.834958C41.4815 0.589423 41.0864 0.049244 40.9876 0.0983512C40.8889 0.147458 40.7407 0.884065 40.4938 1.52246C40.1975 2.25907 40.395 2.60282 40.5432 2.89746C40.7407 3.1921 40.9876 3.38853 40.4938 3.68317C40 3.97782 39.358 3.8796 39.358 3.8796C39.358 3.8796 38.8148 3.78139 38.3703 3.53585C37.9259 3.33942 36.9876 2.94657 36.9876 2.94657C36.9876 2.94657 36.0987 2.70103 35.5062 2.75014C34.9136 2.79924 34.8642 2.84835 34.4197 2.89746C34.1728 2.89746 34.0741 2.89746 33.8271 2.94657C33.6296 2.99567 33.3827 2.84835 33.3827 3.09389C33.3827 3.33942 33.8765 3.33942 34.2222 3.48674C34.5679 3.63407 35.358 3.63407 35.2099 3.83049C35.0123 4.02692 34.2716 4.07603 34.2222 4.02692C34.1728 4.02692 33.679 3.92871 33.2839 3.92871C32.642 3.97782 32.5926 3.97782 31.6543 4.41978C31.5062 4.46889 31.5555 4.81264 31.8518 4.71442C32.1975 4.61621 32.6913 4.51799 33.2346 4.51799C33.8271 4.51799 34.1728 4.71442 34.7654 4.86174C35.2592 5.00907 35.3086 5.10728 36.0494 5.20549C36.1975 5.20549 36.4938 5.10728 36.4938 5.30371C36.4938 5.40192 36.2963 5.54924 36.2963 5.54924C36.2963 5.54924 35.8518 5.64746 35.9012 5.79478C36 5.99121 36.395 5.79478 36.5926 5.79478C36.7901 5.79478 37.0864 5.84389 37.037 6.04032L36.9383 6.18764C36.395 6.33496 36.0987 6.43317 35.6049 6.6296C34.3703 7.12067 33.8765 7.70996 32.6913 8.29924C31.5555 8.83942 29.7284 9.52692 29.7284 9.52692C29.7284 9.52692 29.1852 9.82157 28.395 10.018C27.6049 10.2144 27.5555 10.1653 27.0123 10.2635C26.4691 10.3126 26.2222 10.4109 25.7778 10.6564C25.4815 10.8037 25.3333 10.951 25.0864 11.1966L24.395 12.2278L24 12.8171C23.9012 13.0135 23.8024 13.1117 23.7531 13.3082C23.6543 13.5537 23.6049 13.6519 23.5555 13.8975C23.4074 14.4867 23.5555 14.8305 23.6543 15.4198C23.7037 15.5671 23.7037 15.6653 23.7531 15.8126C23.8024 15.96 24 16.1073 24 16.1073L24.1975 16.1564C24.1975 16.1564 24.8889 16.1073 25.3333 16.0091C25.7778 15.9108 26.4197 15.7635 26.4197 15.7635L27.2592 15.518L27.8024 15.3216C27.8024 15.3216 28.1481 15.3216 28.1975 15.518C28.2469 15.6653 28.0987 15.9109 28.0987 15.9109C28.0987 15.9109 27.8024 16.0582 27.5555 16.1564C27.3086 16.2546 26.716 16.4019 26.6666 16.451L26.0247 16.6475L25.4815 16.6966C25.4815 16.6966 25.3827 16.7457 25.2839 16.893C25.1852 17.0403 25.1852 17.0403 25.1852 17.1385C25.2839 17.2367 25.3333 17.335 25.4321 17.4332C25.6296 17.5805 25.7284 17.6787 25.9753 17.7278C26.321 17.8751 26.5185 17.826 26.8642 17.826C27.358 17.826 27.6543 17.7278 28.0987 17.5314C28.4938 17.2859 28.642 17.2859 29.1852 17.0894C29.3333 17.0403 29.6296 16.9912 29.7284 16.9912C30.6666 16.893 31.2099 17.0403 32.1481 17.1876C33.0864 17.335 33.5308 17.6296 34.4691 17.7769C35.4568 17.9242 36.0494 18.2189 37.0864 17.9734C37.5802 17.8751 37.8765 17.6296 38.1234 18.1207C38.3703 18.5626 38.321 18.8082 38.321 18.8082C38.321 18.8082 38.321 19.1028 37.9753 20.0359C37.6296 20.9689 36.5432 23.2769 36.5432 23.2769L35.8024 24.7501C35.8024 24.7501 35.2099 25.9287 33.8271 27.451C32.4444 28.9734 32.3457 29.0716 32.3457 29.0716C32.3457 29.0716 31.6049 29.6117 30.8642 30.5448C30.1234 31.4778 30.1234 31.8216 29.4321 32.5091C28.9876 32.951 28.7407 33.1966 28.1975 33.5403C27.6543 33.8841 27.0123 33.7859 25.2839 34.9644C23.8024 35.9957 23.0123 36.8305 22.9136 36.7814C22.8148 36.7323 22.321 36.3394 22.1234 36.2412C21.9753 36.143 19.1111 34.2278 19.1111 34.2278L17.9259 33.4421L17.3827 33.0984L17.2839 32.9019L16.9876 32.5091C16.9876 32.5091 16.5432 31.9689 16 31.5269C15.4568 31.0359 14.8642 30.643 13.9753 30.4466C13.1358 30.201 12.5926 30.0537 11.7531 30.3484C11.2099 30.5448 10.9136 30.7412 10.5185 31.1341C10.0247 31.6251 9.92591 32.018 9.53084 32.6073C9.13578 33.1966 8.74072 33.7367 8.54319 34.0314C8.34566 34.326 7.9506 35.1117 7.9506 35.1117C7.9506 35.1117 6.96294 36.6832 6.41973 37.7144C5.77776 38.8439 5.53084 39.5314 4.93825 40.6117C3.99998 42.3305 2.66665 44.0984 2.32097 44.8841C1.97529 45.6698 1.92591 45.768 1.92591 45.768C1.92591 45.768 1.82714 46.21 1.77776 46.5046C1.72837 46.7992 1.72837 47.2903 1.67899 47.4867C1.62961 47.7323 1.48146 47.9778 1.43208 48.0269C1.3827 48.076 0.839486 49.2055 0.641955 49.9421C0.444424 50.6787 -2.05636e-05 52.9867 0.543189 53.2814C1.0864 53.576 5.0864 51.8573 5.62961 50.1876C5.97529 49.1073 4.54319 48.5671 4.93825 47.585C5.0864 47.2412 5.18516 47.1921 5.43208 46.8484C5.82714 46.21 5.67899 44.8841 6.41973 43.6564C6.96294 42.7725 8.04936 41.643 9.53084 39.9734C10.4691 38.9421 11.358 37.2725 11.358 37.2725C11.358 37.2725 11.5555 36.6832 11.9506 36.7814C12.395 36.8796 12.7901 36.8305 12.7901 36.8305L12.9876 36.9778L13.3827 37.3707L13.9753 38.2546C13.9753 38.2546 14.9629 39.6787 15.3086 40.0716C15.6543 40.4644 16 40.7591 16.4938 41.1519C17.037 41.643 17.2345 41.8885 17.9259 42.4287C18.9136 43.2144 18.5679 43.5091 17.2839 42.8216C16.8395 42.576 16.1481 42.3305 15.6049 42.1832C15.0123 42.0359 12.7901 41.4466 11.6543 41.2992C10.5679 41.1519 10.3703 41.201 10.3703 41.201C10.3703 41.201 9.82714 41.1519 9.18516 41.5448C8.54319 41.9376 8.19751 42.2323 8.19751 42.2323C8.19751 42.2323 7.45677 43.0671 7.40739 43.2144C7.358 43.3617 7.01233 43.951 7.01233 43.951C7.01233 43.951 6.81479 44.2457 6.76541 44.5894C6.66665 44.9332 6.71603 45.2769 6.71603 45.2769L6.76541 46.0135L6.81479 46.701C6.81479 46.701 6.96294 48.4198 7.30862 50.1385C7.40739 50.6296 7.50615 51.4153 7.50615 51.4153L7.75307 53.1832C7.75307 53.1832 7.90121 55.0492 8.04936 55.6876C8.19751 56.2769 8.29628 56.326 8.39504 56.7189C8.59257 57.4555 8.24689 57.7992 8.59257 58.6832C8.93825 59.5671 9.23455 59.4689 9.58023 60.0091C9.82714 60.4019 9.92591 60.5001 10.1234 60.9912C10.321 61.4823 10.9629 63.1028 11.7037 64.2814C12.4938 65.5091 13.5308 67.0314 14.2222 66.8841C14.9136 66.7367 15.4074 65.6564 15.4074 65.6564C15.4074 65.6564 16.1975 63.5448 15.7037 61.4823C15.2099 59.3707 12.9383 60.3528 12.642 58.8305C12.5926 58.4867 12.642 57.9466 12.642 57.9466C12.642 57.9466 12.5926 57.3082 12.4938 57.1117C12.395 56.9153 11.6049 55.4421 11.3086 54.2144C11.0617 53.2814 11.1111 50.2859 10.9136 49.451C10.3703 47.2903 10.321 47.4867 10.6173 47.0939C10.9629 46.701 11.2592 46.7992 11.2592 46.7992L11.7037 46.8484L12.0494 46.9957C12.0494 46.9957 12.4444 47.2412 12.6913 47.3885C12.8889 47.5359 13.5802 48.076 13.5802 48.076L15.2592 49.1564C15.2592 49.1564 16.1975 49.6966 16.5926 49.893C16.9876 50.0894 17.3333 50.335 17.3333 50.335L17.7778 50.6296L18.5185 51.1698L18.6666 51.3171L18.7654 51.5135C18.7654 51.5135 19.1111 52.2992 20.5926 53.1341C21.7778 53.8216 22.8148 53.6251 23.2592 54.1653C23.358 54.2635 24.1975 55.393 24.5926 56.0805C25.0864 56.8662 25.679 57.7992 25.8765 58.0939C26.0741 58.3885 27.3086 59.9109 27.3086 59.9109L28.9382 61.6787L31.0617 63.643L32.9876 65.2635L34.2222 66.2457C34.2222 66.2457 35.3086 67.2769 36.5432 68.1117C37.7284 68.8975 37.7778 68.9957 38.5679 69.5359C39.1605 69.9287 39.9506 70.4689 40.7407 71.0582C41.5308 71.6966 42.4197 72.8751 42.0741 73.268C41.8271 73.4153 41.3827 72.7769 40.5432 72.0403C39.8518 71.451 39.5062 71.1564 38.8148 70.6653C37.9259 69.9778 37.4815 69.6341 36.4938 69.0448C36 68.7501 35.1111 68.21 35.0617 68.3082C34.716 69.3394 34.7654 70.3216 34.8148 71.5984C34.8642 72.4823 35.0123 73.3662 35.3086 74.4957C35.5555 75.576 35.8025 76.1653 36.1975 77.1966C36.5926 78.2278 37.3333 79.8484 37.3333 79.8484L38.4691 82.1073L39.5062 83.826L40.0494 84.71L40.2469 85.0046C40.2469 85.0046 40.4938 85.5939 40.2469 85.9867C40 86.3796 39.7037 87.2144 39.2592 87.2635C38.8148 87.3617 37.7778 87.4109 37.7778 87.4109L31.9012 87.3126L28.8395 87.0671C28.8395 87.0671 28.4938 86.8707 26.716 86.8707C25.679 86.8707 24.8395 87.3126 24.2469 87.3617C23.7531 87.4108 21.3333 87.2144 19.7037 87.8528C18.1728 88.4912 17.4815 88.6385 16.9382 89.6207C16.5432 90.3573 18.8642 91.5359 20.7901 91.9778C23.9012 92.6653 23.0123 91.3394 24.1975 90.5046C24.3457 90.4064 24.395 90.3082 24.5432 90.2591C25.3333 90.0135 25.7778 90.6519 26.5679 90.6519C27.4568 90.6519 27.9506 90.3573 28.8395 90.21C33.3333 89.6207 40.3457 91.7323 40.3457 91.7323C40.3457 91.7323 42.0741 92.2725 42.8642 92.1251C43.8025 91.9287 43.6049 91.585 43.9012 91.0448C44.1481 90.6028 44.0494 90.5046 44.0987 90.0135C44.0987 89.7189 44.0494 89.5716 44 89.2769C43.8024 88.4421 43.2592 87.2635 43.2592 87.2635C43.2592 87.2635 42.8642 86.3796 42.716 85.9376C42.5185 85.2992 42.321 84.9064 42.2222 84.2189C41.9259 82.4019 41.9753 82.5492 41.9753 81.518C41.9753 79.6519 42.1728 78.6207 42.6666 76.8037C43.4074 74.1519 44.7901 73.0225 45.8271 70.4689C46.1234 69.7814 46.1234 68.7992 46.4691 68.701C46.8642 68.6519 46.8148 69.9287 46.6173 70.6653C45.9753 73.2189 44.395 74.2992 43.6543 76.9019C43.1111 78.9153 42.8148 80.0939 42.9629 82.1564C43.0123 83.2859 43.4568 85.0537 43.4568 85.0537C43.4568 85.0537 44.0494 87.018 44.3457 87.7546C44.642 88.4912 45.2345 89.7189 45.2345 89.7189L46.5679 92.076L47.2592 93.2055C47.2592 93.2055 47.7531 93.6475 47.5062 94.3841C47.2592 95.1207 46.7654 95.5626 46.1728 96.201C44.4938 98.1653 40.5926 101.063 39.6049 101.75C38.2222 102.781 38.2716 103.076 38.1728 103.371C37.6296 104.942 36.0494 104.991 34.321 106.857C33.9259 107.25 32.8889 108.33 33.0864 109.264C33.1852 109.607 37.4321 110.344 39.9012 109.313C41.8271 108.478 40.1481 107.545 40.6913 106.612C41.0864 105.924 42.0741 105.924 42.5185 105.335C43.2592 104.353 42.7654 104.402 43.4074 103.616C45.5308 101.063 46.9136 99.5894 50.716 97.2814C51.0617 97.085 51.7037 96.7903 51.7037 96.7903C51.7037 96.7903 52.2469 96.5448 52.4444 96.2501C52.6913 95.8573 52.642 95.5135 52.642 95.0716C52.642 94.7769 52.5926 94.6296 52.5926 94.335C52.5926 93.9912 52.642 93.7948 52.5432 93.451C52.4444 92.9109 52.0987 92.4689 51.9012 92.1742C51.7037 91.9287 51.358 91.4867 51.1605 90.5537C50.9136 89.6207 50.9136 88.835 51.3086 87.8037C51.7037 86.7725 52.5926 85.9376 52.5926 85.9376L54.8148 84.4644C54.8148 84.4644 56.7407 83.0894 57.3333 82.5492C57.9753 82.0091 59.2099 80.8796 60.0987 79.6028C61.1358 78.1787 61.679 77.2948 62.1234 75.576C62.2716 74.9376 62.4197 73.9555 62.4197 73.9555C62.4197 73.9555 62.4197 73.268 62.8148 73.2189C63.2099 73.1698 63.3086 73.3171 63.3086 73.3171C63.3086 73.3171 63.6543 73.5135 63.7531 74.4957C63.8025 75.4778 63.5062 76.6073 63.5062 76.6073C63.5062 76.6073 63.2099 77.7367 63.1111 78.4242C63.0617 78.8662 63.0617 79.1117 63.0617 79.6028C63.0617 80.4376 63.4074 81.1251 63.4074 81.1251C63.4074 81.1251 63.6049 81.2725 63.6049 80.9287C63.6049 80.5359 63.7037 79.9466 63.8518 79.3573C64 78.8662 64.0987 78.9644 64.395 78.1296C64.7901 77.0492 64.4444 77.1475 64.642 76.5091C64.7407 76.2144 64.9876 75.9198 65.2839 75.9198C65.5802 75.9198 65.6296 76.3126 65.6296 76.3126C65.6296 76.3126 65.9259 77.5894 65.679 78.768C65.4321 79.9466 64.5432 81.5671 64.5432 81.5671L63.8518 82.7457C63.8518 82.7457 63.358 83.5805 63.1605 84.1207C62.9629 84.71 62.9136 84.9555 63.0123 85.4957C63.1605 86.085 63.6049 86.8707 63.8518 86.7234C64.0494 86.576 63.5555 86.085 64.1481 84.9064C64.7407 83.7278 65.5308 82.9912 65.5308 82.9912C65.5308 82.9912 66.6173 81.7144 67.1111 80.7323C67.5555 79.8483 68 78.4242 68 78.4242C68 78.4242 68.3457 77.1475 68.2469 76.0671C68.1975 75.0358 68 74.4957 68 74.4957L67.5555 73.71L67.3086 73.1207L67.4074 72.7769C67.5062 72.7278 67.8518 72.9733 68.1481 73.3662C68.4444 73.7591 68.7407 74.2501 68.8889 74.9376C69.037 75.4287 69.0864 75.8707 69.0864 76.3126C69.0864 76.7055 68.9383 78.326 69.5308 79.3573C69.7778 79.8484 70.3704 80.9778 70.4197 80.4867C70.5185 79.3573 70.0247 78.8171 70.0741 77.7858C70.1234 76.6073 70.4197 76.9019 70.5185 76.3126C70.6173 75.6742 70.7654 75.5269 70.6666 74.6921C70.5679 73.9064 70.2222 72.8751 70.2222 72.8751L69.8765 72.0894L69.7284 71.7948C69.7284 71.7948 69.8271 71.6475 69.9753 71.6475L71.1605 71.2546C71.1605 71.2546 72.6913 70.5671 73.2839 70.076C73.9259 69.6341 74.6666 68.8484 74.6666 68.8484C74.6666 68.8484 75.6543 67.6207 76.1481 66.7367C77.3333 64.5269 77.3333 61.7278 77.2839 60.451C77.2346 59.2234 76.8889 57.6028 76.8889 57.6028C76.8889 57.6028 76.4938 55.6385 76.5926 54.3617C76.6913 53.085 76.7901 52.4957 76.7901 52.4957C76.7901 52.4957 76.7407 51.2189 77.8271 49.8439C78.9136 48.4689 79.4074 47.585 79.6049 46.5537C79.8025 45.6698 79.5061 44.2457 79.1111 44.7859ZM46.4197 35.9466C46.2716 35.9466 46.0741 35.7501 46.0741 35.7501C46.0741 35.7501 46.0247 35.701 46.1728 35.6028C46.321 35.5046 46.5185 35.5537 46.5185 35.5537L46.6666 35.6028L46.9136 35.9466C46.8642 36.0939 46.5679 35.9957 46.4197 35.9466ZM47.0123 34.326C46.8642 34.2769 46.6173 34.1296 46.6173 34.1296C46.6173 34.1296 46.5679 34.0314 46.716 33.9332C46.8642 33.835 47.1111 33.8841 47.1111 33.8841L47.2592 33.9823C47.3086 34.0314 47.5555 34.2769 47.5555 34.3751C47.5555 34.5225 47.2099 34.3751 47.0123 34.326ZM47.5555 32.6564C47.358 32.6073 47.0617 32.4109 47.0617 32.4109C47.0617 32.4109 47.0123 32.3126 47.2099 32.2144C47.4074 32.1162 47.7037 32.1653 47.7037 32.1653L47.9012 32.2635C48 32.3617 48.2469 32.6073 48.2469 32.7546C48.1975 32.9019 47.7531 32.7055 47.5555 32.6564ZM48 31.1341C47.8024 31.085 47.5062 30.8885 47.5062 30.8885C47.5062 30.8885 47.4568 30.7903 47.6543 30.6921C47.8518 30.5939 48.1481 30.643 48.1481 30.643L48.3457 30.7412C48.4444 30.8394 48.6913 31.085 48.6913 31.2323C48.642 31.3305 48.1975 31.1341 48 31.1341ZM48.4444 29.3171C48.1975 29.268 47.9012 29.0225 47.9012 29.0225C47.9012 29.0225 47.8518 28.9242 48.0494 28.7769C48.2469 28.6296 48.5926 28.7278 48.5926 28.7278L48.7901 28.826C48.8889 28.9242 49.1852 29.2189 49.1852 29.3662C49.1852 29.5626 48.642 29.3171 48.4444 29.3171ZM48.7407 27.3528C48.4444 27.3037 48.0494 27.0091 48.0494 27.0091C48.0494 27.0091 47.9506 26.8617 48.2469 26.7144C48.4938 26.5671 48.8889 26.6162 48.8889 26.6162L49.1358 26.7635C49.2346 26.8617 49.5802 27.2546 49.6296 27.451C49.6296 27.6475 49.037 27.4019 48.7407 27.3528ZM48.9383 25.3885C48.5926 25.3394 48.0987 24.9466 48.0987 24.9466C48.0987 24.9466 48 24.7992 48.2963 24.6028C48.5926 24.4064 49.0864 24.5046 49.0864 24.5046C49.0864 24.5046 49.2346 24.5537 49.3827 24.6519C49.5308 24.7992 49.9259 25.2412 49.9753 25.4867C50.0247 25.7323 49.2839 25.4376 48.9383 25.3885ZM49.2345 23.1296C48.8395 23.0805 48.2963 22.6385 48.2963 22.6385C48.2963 22.6385 48.1975 22.4421 48.5432 22.2457C48.8889 22.0001 49.4321 22.1475 49.4321 22.1475C49.4321 22.1475 49.6296 22.1966 49.7778 22.3439C49.9259 22.4912 50.4197 23.0314 50.4691 23.2769C50.4691 23.5716 49.6296 23.1787 49.2345 23.1296ZM49.037 13.9957C48.7407 13.9466 48.3457 13.6519 48.3457 13.6519C48.3457 13.6519 48.2469 13.5537 48.5432 13.4064C48.8395 13.2591 49.2345 13.3573 49.2345 13.3573C49.2345 13.3573 49.3827 13.4064 49.4815 13.5046C49.5802 13.6028 49.9753 13.9466 49.9753 14.143C49.9753 14.2903 49.3333 14.0448 49.037 13.9957ZM50.1234 16.2055C50.1728 16.4019 49.4815 16.1564 49.1358 16.1073C48.8395 16.0582 48.395 15.7144 48.395 15.7144C48.395 15.7144 48.2963 15.5671 48.5926 15.4198C48.8889 15.2234 49.2839 15.3216 49.2839 15.3216C49.2839 15.3216 49.4321 15.3707 49.5802 15.4689C49.7284 15.6162 50.0741 16.0091 50.1234 16.2055ZM48.6913 19.8394C48.9876 19.643 49.4815 19.7412 49.4815 19.7412C49.4815 19.7412 49.6296 19.7903 49.7778 19.8885C49.9259 20.0359 50.321 20.4778 50.3703 20.7234C50.4197 20.9689 49.679 20.6742 49.3333 20.576C48.9876 20.5269 48.4938 20.1341 48.4938 20.1341C48.4938 20.1341 48.395 20.0359 48.6913 19.8394ZM49.3333 18.1698C48.9876 18.1207 48.4938 17.7278 48.4938 17.7278C48.4938 17.7278 48.395 17.5805 48.6913 17.3841C48.9876 17.1876 49.4815 17.2859 49.4815 17.2859C49.4815 17.2859 49.6296 17.335 49.7778 17.4332C49.9259 17.5805 50.321 18.0225 50.3703 18.268C50.4197 18.5626 49.679 18.268 49.3333 18.1698ZM49.9753 10.8037C50.3703 10.9019 50.4691 11.1475 50.2716 11.1475C50.0741 11.1966 49.9753 11.1966 49.8271 11.1966C49.3827 11.1966 49.4321 11.0001 48.8395 11.2948C48.2469 11.5894 48.6913 11.4421 47.8518 11.7367C47.0617 12.0314 47.2592 11.2457 47.2592 11.2457C47.2592 11.2457 47.3086 11.0984 47.4074 10.7055C47.5062 10.3126 48 10.7055 48.3457 10.7055C48.9876 10.7055 49.5308 10.7055 49.9753 10.8037ZM47.7531 7.75907L48 7.90639C48.0987 8.0046 48.4444 8.39746 48.4938 8.59389C48.5432 8.79032 47.9012 8.54478 47.6543 8.49567C47.358 8.44657 46.9629 8.15192 46.9629 8.15192C46.9629 8.15192 46.8642 8.0046 47.1605 7.85728C47.4074 7.66085 47.7531 7.75907 47.7531 7.75907ZM45.9753 5.40192C46.2222 5.2546 46.6173 5.30371 46.6173 5.30371L46.8642 5.45103C46.9629 5.54924 47.3086 5.9421 47.358 6.13853C47.4074 6.33496 46.7654 6.08942 46.5185 6.04032C46.2222 5.99121 45.8271 5.69657 45.8271 5.69657C45.8271 5.69657 45.7284 5.54924 45.9753 5.40192ZM45.4815 37.2234C45.6296 37.1251 45.8271 37.1742 45.8271 37.1742L45.9753 37.2234L46.2222 37.5671C46.2222 37.6653 45.9259 37.518 45.7778 37.518C45.6296 37.518 45.4321 37.3216 45.4321 37.3216C45.4321 37.3216 45.3333 37.2725 45.4815 37.2234ZM25.679 13.8484C25.5308 13.9466 25.4321 13.9957 25.2345 14.143C24.9876 14.3394 24.7407 14.8305 24.5926 14.6832C24.395 14.5359 24.4938 13.9957 24.4938 13.9957C24.4938 13.9957 24.642 13.6028 24.8395 13.21C25.0864 12.8171 25.3827 12.8171 25.3827 12.8171C25.679 12.8171 26.2222 13.0135 26.2222 13.4555C26.2716 13.8975 25.9259 13.701 25.679 13.8484ZM29.7284 15.3707C29.7284 15.3707 29.5308 15.4198 29.4815 15.076C29.4321 14.7323 29.7284 14.6832 29.7284 14.6832C29.7284 14.6832 30.321 14.3885 30.321 14.7814C30.3703 15.1251 29.7284 15.3707 29.7284 15.3707ZM35.0123 8.6921C35.0123 8.6921 34.3704 9.72335 33.4815 10.1162C32.5926 10.5091 32 10.7055 30.321 10.8528C30.0741 10.8528 30.1728 10.7055 30.1728 10.7055C30.1728 10.7055 32.0987 10.1653 33.1852 9.57603C33.7778 9.23228 34.4691 8.79032 34.6666 8.59389C35.358 8.0046 35.0123 8.6921 35.0123 8.6921ZM1.82714 51.2189C1.82714 51.4644 1.53084 51.9064 1.43208 51.9064C1.33331 51.9064 1.13578 51.4644 1.18516 51.2189C1.23455 50.9734 1.28393 50.2859 1.67899 50.3841C1.97529 50.4332 1.82714 50.9734 1.82714 51.2189ZM3.11109 45.6698C3.11109 45.6698 2.66665 46.6028 2.5185 46.21C2.37035 45.8662 2.66665 45.2278 2.66665 45.2278C3.06171 44.8841 3.20986 44.393 3.40739 44.5894C3.55554 44.7859 3.11109 45.6698 3.11109 45.6698ZM9.23455 36.0939C8.7901 36.585 7.40739 39.1876 7.11109 38.7457C6.81479 38.4019 8.44442 35.9466 8.7901 35.4555C9.13578 34.9153 9.43208 35.0135 9.43208 35.0135L9.53084 35.1117C9.48146 35.1117 9.67899 35.6028 9.23455 36.0939ZM12.9383 32.2144C12.9383 32.2144 11.9506 32.4109 12.0987 32.0671C12.2963 31.7234 12.9876 31.576 12.9876 31.576C13.5308 31.6742 13.6296 31.7234 13.5802 31.9689C13.6296 32.2144 12.9383 32.2144 12.9383 32.2144ZM16.9382 39.0894C16.4938 39.5314 16.3457 38.9421 15.7037 38.2055C15.0617 37.518 15.2099 36.9287 15.2099 36.9287H15.3086L15.4074 36.9778L15.6543 37.076L15.8024 37.2234L16.2963 37.7144C16.4938 38.0091 17.037 38.9912 16.9382 39.0894ZM9.28393 53.7725C9.13578 53.7725 8.98763 53.4778 8.98763 53.4778C8.98763 53.4778 8.59257 52.8885 8.44442 52.4466C8.29628 52.0537 8.24689 51.4153 8.24689 51.4153C8.24689 51.4153 8.14813 50.5805 8.14813 50.2859C8.19751 49.893 8.19751 49.5492 8.24689 49.3528C8.29628 49.1564 8.49381 49.2055 8.49381 49.2055C8.7901 49.2055 8.7901 49.451 8.7901 49.451V49.5984C8.7901 49.5984 8.7901 50.4823 8.83949 51.1698C8.83949 51.3662 9.3827 53.576 9.3827 53.576C9.3827 53.576 9.48146 53.7725 9.28393 53.7725ZM9.18516 43.46C8.83949 44.0001 8.59257 44.0001 8.59257 44.0001C8.59257 43.951 8.49381 43.7546 8.7901 43.1653C9.0864 42.576 9.3827 42.6251 9.3827 42.6251L9.48146 42.7234C9.48146 42.7234 9.53084 42.9198 9.18516 43.46ZM12.6913 64.0358C12.7901 63.8394 13.4321 64.3305 13.4321 64.3305C13.679 64.3796 13.9259 64.8216 13.9259 64.8216C13.9259 64.8216 14.0247 65.1653 13.7284 65.2635C13.4321 65.4108 13.2345 65.1162 13.2345 65.1162C13.2345 65.1162 12.5926 64.2323 12.6913 64.0358ZM17.3333 49.0091C16.642 48.8617 15.1605 47.7323 14.5679 47.4376C13.9753 47.143 12.9876 47.0448 13.4321 46.6519C13.4815 46.6028 13.5308 46.5046 13.6296 46.5046C13.7284 46.5046 14.1728 46.6519 14.1728 46.6519L15.2592 47.0939C15.3086 47.0939 15.8518 47.3394 16.2963 47.585C16.6913 47.8305 17.3827 48.2725 17.3827 48.2725L17.679 48.518C17.679 48.6162 18.0247 49.1564 17.3333 49.0091ZM23.358 39.2367C23.358 39.2367 22.5185 40.3662 22.0247 41.0537C21.3827 41.9867 20.5926 43.4109 20.4444 43.2635C20.2963 43.1162 21.1358 41.5448 21.5802 40.71C22.0741 39.6787 22.8148 39.1385 23.1111 39.0403C23.7531 38.7457 23.358 39.2367 23.358 39.2367ZM20.6913 88.393C20.6913 88.393 20.6913 88.5894 20.3457 88.835C20 89.0805 19.8518 88.9332 19.8024 88.9332C19.7531 88.9332 19.4074 88.7367 19.4074 88.5403C19.4568 88.3439 20 88.1966 20 88.1966C20.9382 88.1475 20.6913 88.393 20.6913 88.393ZM28.3457 88.0983C28 88.0492 27.9506 87.951 28 87.9019C28 87.8528 28.0987 87.7546 28.4938 87.7546C28.8889 87.7546 28.8889 87.951 28.8889 87.951C28.8889 88.0984 28.7407 88.1475 28.3457 88.0983ZM37.1358 88.5894C36.395 88.7858 36.0987 88.6876 35.4568 88.7367C34.9136 88.7859 34.6666 88.835 34.1234 88.835C33.1852 88.835 33.0864 88.8841 31.7531 88.4912C31.5062 88.393 31.2099 88.0984 31.3086 88.0001C31.4074 87.8528 31.6049 87.9019 31.6049 87.9019C31.6049 87.9019 33.2839 88.1966 34.3703 88.2457C35.1605 88.2948 35.5555 88.3439 36.3457 88.2948C36.7901 88.2948 36.5432 88.2457 37.2346 88.2457C37.4815 88.1966 37.3333 88.5403 37.1358 88.5894ZM41.8271 87.2144C41.7778 87.2635 41.4815 87.3617 41.2346 87.4109C40.9383 87.46 41.0864 87.2144 41.0864 87.2144C41.0864 87.2144 41.2839 86.9198 41.5308 86.7725C41.8271 86.6251 41.9753 86.7725 41.9753 86.7725C42.0741 86.9689 41.8765 87.1653 41.8271 87.2144ZM45.4815 77.7858C45.1358 78.5225 45.037 78.768 44.9876 79.4555C44.8889 80.1921 45.3333 82.2546 44.642 81.4689C44.395 81.1251 44.1481 79.5046 44.3457 78.7189C44.6913 76.951 46.1234 76.46 45.4815 77.7858ZM35.5062 107.79C35.2099 107.987 35.8024 108.576 34.8642 108.527C34.321 108.478 34.6173 107.987 34.6666 107.938L35.0123 107.447C35.2592 107.103 35.4074 107.054 35.6543 106.906C35.9012 106.759 36.0987 107.152 36.0987 107.152C36.0987 107.152 36.1975 107.299 36.1975 107.496C36.1975 107.643 35.7531 107.594 35.5062 107.79ZM40.6913 102.83L40.2469 103.174C40.1975 103.174 39.9012 103.42 39.8024 103.272C39.7037 103.125 39.8518 102.929 39.8518 102.88C39.8518 102.83 40.1481 102.487 40.395 102.389C40.642 102.241 40.7901 102.389 40.7901 102.389C40.9383 102.732 40.6913 102.83 40.6913 102.83ZM43.0123 16.7948C43.0123 16.7948 42.8148 17.4332 42.4197 17.5805C41.9259 17.7278 40.0494 17.7769 40 17.6296C39.9506 17.4823 42.1728 17.2859 43.0123 16.451C43.2099 16.2546 43.0123 16.7948 43.0123 16.7948ZM42.321 15.1742C42.4691 14.9287 42.3704 15.5671 42.3704 15.5671C42.3704 15.5671 42.2222 16.2055 41.8765 16.4019C41.4321 16.6475 40.3457 16.9421 40.2469 16.7948C40.2469 16.6966 41.679 16.2546 42.321 15.1742ZM39.2592 7.80817C39.2592 7.80817 39.4568 7.80817 39.7531 7.95549C40.0494 8.15192 40.2469 8.74121 40.2469 8.74121C40.2469 8.74121 40.2963 8.83942 40.0494 8.83942C39.9012 8.83942 39.9012 8.59389 39.7531 8.49567C39.5555 8.34835 39.4074 8.29924 39.1605 8.20103C38.9136 8.10282 38.5679 8.25014 38.5185 8.0046C38.5185 7.70996 39.2592 7.80817 39.2592 7.80817ZM36.9876 9.42871C36.9876 9.42871 37.0864 9.13407 37.5308 8.88853C37.9259 8.64299 38.4691 8.64299 38.4691 8.64299C38.4691 8.64299 38.7654 8.64299 39.1111 8.88853C39.4568 9.13407 39.7531 9.96889 39.7531 9.96889C39.7531 9.96889 39.8518 10.5091 39.6049 10.7055C39.358 10.9019 38.9629 10.5582 38.7654 10.2635C38.5185 9.96889 38.3703 9.87067 38.0247 9.77246C37.6296 9.62514 37.037 10.0671 36.9383 9.77246C36.9383 9.67424 36.9876 9.42871 36.9876 9.42871ZM36.8395 16.2055C36.5432 16.2546 36.7407 15.96 36.7407 15.96C36.7407 15.96 37.5802 15.6162 38.1234 15.3216C39.0123 14.8796 40.6913 13.1117 40.2469 13.9466C40.0494 14.3394 39.4568 14.8305 39.4568 14.8305C39.4568 14.8305 38.7654 15.8126 38.6173 15.96C37.9753 16.451 37.1852 16.1564 36.8395 16.2055ZM29.8765 35.2591L29.9259 35.1609C29.9259 35.1609 31.4074 34.1787 33.7284 34.4734C35.1111 34.6698 36.4444 35.8975 36.2469 36.0448C36.0494 36.1921 35.7531 36.0448 35.6543 36.0448L35.1605 35.7992L34.4197 35.6028C34.4197 35.6028 33.0864 35.3082 32.0987 35.3573C31.1111 35.4064 30.2222 35.7501 30.2222 35.7501C30.2222 35.7501 29.8271 35.9466 29.7284 35.701C29.679 35.4064 29.8765 35.2591 29.8765 35.2591ZM33.5308 62.9064C30.1234 60.3037 25.9753 55.0001 26.4691 54.5091C26.9136 54.1162 28.5926 56.5716 31.1111 59.2725C33.7778 62.1207 36.8889 64.8216 36.9876 65.1653C37.1852 65.7546 34.8148 63.8885 33.5308 62.9064ZM41.2839 26.2234C39.8518 28.6787 37.8765 30.5448 37.8765 30.5448C37.1852 31.0359 37.6296 30.1519 37.6296 30.1519C37.6296 30.1519 39.5555 27.5001 40.4444 25.6341C41.0864 24.3082 41.4815 22.5403 41.7778 22.1966C42.4691 21.3617 42.1234 24.7501 41.2839 26.2234ZM45.2345 53.1341C43.7531 51.3662 42.6666 49.451 42.321 47.0448C42.2222 46.5046 42.2222 45.7189 42.716 45.8171C43.1605 45.8662 43.1111 46.701 43.1111 46.8975C43.2592 48.3216 43.8518 49.7457 44.9383 51.4644C46.4691 53.8707 48.9383 55.7367 48.8395 55.8841C48.5926 56.1296 46.1234 54.2144 45.2345 53.1341ZM45.679 99.0492C44.8395 99.835 43.4074 100.915 43.4074 100.915H43.2099V100.67L43.2592 100.572L43.358 100.424L43.4568 100.277L43.5555 100.13L43.8518 99.7859L44.5432 99.1475L45.2345 98.5091L46.321 97.4287C46.321 97.4287 46.716 96.9867 46.8642 96.8885C47.0123 96.7903 47.1111 96.6921 47.2592 96.5939C47.4568 96.4957 47.7037 96.3483 47.8025 96.4466V96.643C47.8518 96.7903 46.5679 98.2144 45.679 99.0492ZM48.7407 62.71C48.0987 63.1519 47.8518 63.1028 47.4568 63.5448C47.0123 64.085 46.8642 65.9019 46.4197 65.1653C45.9753 64.4287 46.2716 63.3975 47.0123 62.6117C47.9012 61.5805 49.8271 61.9242 48.7407 62.71ZM51.0617 95.0225C51.358 94.9242 51.5062 94.9733 51.5062 94.9733L51.6049 95.1698C51.6049 95.2189 51.2099 95.7591 51.0123 95.7591C50.7654 95.71 50.8642 95.4153 50.8642 95.4153C50.8642 95.4153 50.7654 95.1207 51.0617 95.0225ZM59.5062 75.0359C59.0617 74.7412 59.7531 73.8573 59.7531 73.1207C59.7531 72.5314 59.6543 72.0894 59.6543 71.5984C59.6543 71.1073 60.1481 70.96 60.1481 70.96C60.2469 70.96 60.4444 71.0582 60.6913 71.5492C60.9383 72.0403 60.2963 75.5269 59.5062 75.0359ZM74.6173 60.9912C74.5185 63.0537 74.4197 64.5269 73.1852 66.0984C71.7037 68.0135 69.1358 69.9778 69.679 68.4064C70.0247 67.4734 72.2963 66.2948 73.1852 63.6921C73.679 62.1207 73.7778 60.6475 73.7778 60.6475L73.679 57.6519C73.679 57.6519 73.6296 57.4064 73.6296 57.0626C73.7778 56.6698 73.9753 56.9644 73.9753 56.9644L74.0741 57.1117C74.0741 57.21 74.6666 59.518 74.6173 60.9912Z" fill="black"/>
</g>
<defs>
<clipPath id="clip0_157_191">
<rect width="80" height="110" fill="white"/>
</clipPath>
</defs>
</svg>
