<svg width="270" height="45" viewBox="0 0 270 45" fill="none" xmlns="http://www.w3.org/2000/svg">
<g clip-path="url(#clip0_157_188)">
<path d="M142.2 32.7374C142.2 33.8624 141.75 34.5374 140.288 34.5374H130.837C129.6 34.5374 128.925 34.1999 128.925 33.0749C128.925 31.9499 129.375 31.3874 130.837 31.3874H142.2V32.7374ZM183.712 28.2374V26.9999C183.712 25.8749 184.163 25.1999 185.738 25.1999H195.188C196.538 25.1999 197.1 25.5374 197.1 26.7749C197.1 27.7874 196.538 28.2374 195.3 28.2374H183.712ZM208.463 19.9124V39.8249H218.025V25.3124H225.787C228.375 25.3124 229.725 26.0999 229.725 28.6874V39.8249H239.288V27.8999C239.288 22.2749 236.25 19.9124 227.475 19.9124H208.463ZM185.063 19.9124C177.413 19.9124 174.375 22.4999 174.375 28.2374V32.1749C174.375 37.1249 177.412 39.8249 184.387 39.8249H204.525V34.5374H186.3C184.5 34.5374 183.825 33.9749 183.825 32.7374V31.9499H198.225C203.175 31.9499 205.987 30.3749 205.987 26.6624V25.7624C205.987 22.3874 204.3 20.0249 195.863 20.0249H185.063V19.9124ZM154.462 39.7124H164.025V26.6624C164.025 25.7624 164.363 25.1999 165.488 25.1999H172.913V19.7999H162.338C156.713 19.7999 154.462 21.9374 154.462 25.4249V39.5999V39.7124ZM121.95 19.9124V25.1999H139.838C141.637 25.1999 142.2 25.7624 142.2 27.1124V27.8999H127.8C121.837 27.8999 119.925 30.3749 119.925 33.5249V34.3124C119.925 38.6999 123.412 39.9374 130.275 39.9374H140.85C148.275 39.9374 151.538 38.2499 151.538 32.3999V27.7874C151.538 22.8374 148.5 20.1374 141.525 20.1374H121.838V19.9124H121.95ZM65.1375 30.9374C65.1375 37.2374 68.2875 39.7124 76.6125 39.7124H94.725V34.3124H77.9625C75.9375 34.3124 74.5875 33.4124 74.5875 30.5999V28.9124C74.5875 26.3249 75.825 25.3124 77.85 25.3124H94.6125V19.9124H76.275C68.175 19.9124 65.025 23.2874 65.025 28.7999V31.0499H65.1375V30.9374ZM97.5375 16.6499V39.8249H118.238V34.4249H107.1V16.7624H97.5375V16.6499ZM38.025 29.6999V16.7624H32.625C29.25 16.7624 27.3375 18.1124 25.425 19.6874L0 39.8249H11.5875L28.4625 26.2124V39.8249H36.3375L52.65 26.0999V39.8249H62.325V16.7624H57.0375C54.225 16.7624 52.2 17.8874 50.175 19.5749L38.025 29.6999Z" fill="black"/>
<path d="M262.238 0C256.95 0 249.413 1.575 241.313 4.5C234.563 6.975 227.813 10.125 220.613 14.7375C224.888 13.05 233.213 11.025 240.075 11.025C249.413 11.025 256.05 14.625 246.263 27.1125C275.063 8.2125 274.275 0 262.238 0Z" fill="black"/>
</g>
<defs>
<clipPath id="clip0_157_188">
<rect width="270" height="45" fill="white"/>
</clipPath>
</defs>
</svg>
