<svg width="300" height="20" viewBox="0 0 300 20" fill="none" xmlns="http://www.w3.org/2000/svg">
<g clip-path="url(#clip0_157_182)">
<path d="M33.4667 14.7333C36.6733 14.7333 38.4 13.0067 38.4 9.8V4.93333C38.4 1.72667 36.6733 0 33.4667 0H0V20H4.53333V14.7333H33.4667ZM33.8667 5.2V9.53333C33.8667 10.0533 33.5867 10.3333 33.0667 10.3333H4.53333V4.4H33.0667C33.5867 4.4 33.8667 4.68 33.8667 5.2ZM49.0667 20C45.86 20 44.1333 18.2733 44.1333 15.0667V4.93333C44.1333 1.72667 45.86 0 49.0667 0H76.8667C80.0733 0 81.8 1.72667 81.8 4.93333V15.0667C81.8 18.2733 80.0733 20 76.8667 20H49.0667ZM76.4667 15.6C76.9867 15.6 77.2667 15.32 77.2667 14.8V5.2C77.2667 4.68 76.9867 4.4 76.4667 4.4H49.4667C48.9467 4.4 48.6667 4.68 48.6667 5.2V14.8C48.6667 15.32 48.9467 15.6 49.4667 15.6H76.4667ZM121.467 13.2C124.123 14.3171 125.99 16.94 126 20H121.467C121.467 16.4 119.8 14.7333 116.2 14.7333H92.1333V20H87.6V0H121.067C124.273 0 126 1.72667 126 4.93333V8.276C126 11.3467 124.417 13.06 121.467 13.2ZM120.667 10.3333C121.187 10.3333 121.467 10.0533 121.467 9.53333V5.2C121.467 4.68 121.187 4.4 120.667 4.4H92.1333V10.3333H120.667ZM131.467 4.93333C131.467 1.72667 133.193 0 136.4 0H169.2V3.73333H136.8C136.28 3.73333 136 4.01333 136 4.53333V7.33333C136 7.85333 136.28 8.13333 136.8 8.13333H164.933C168.14 8.13333 169.867 9.86 169.867 13.0667V15.0667C169.867 18.2733 168.14 20 164.933 20H132.133V16.2667H164.533C165.053 16.2667 165.333 15.9867 165.333 15.4667V12.6667C165.333 12.1467 165.053 11.8667 164.533 11.8667H136.4C133.193 11.8667 131.467 10.14 131.467 6.93333V4.93333ZM175.533 4.93333C175.533 1.72667 177.26 0 180.467 0H212.467V4.4H180.867C180.347 4.4 180.067 4.68 180.067 5.2V14.8C180.067 15.32 180.347 15.6 180.867 15.6H212.467V20H180.467C177.26 20 175.533 18.2733 175.533 15.0667V4.93333ZM254.467 0V20H249.933V12.2H222.8V20H218.267V0H222.8V7.8H249.933V0H254.467ZM264.867 3.73333V8.13333H300V11.8667H264.867V16.2667H300V20H260.333V0H300V3.73333H264.867Z" fill="black"/>
</g>
<defs>
<clipPath id="clip0_157_182">
<rect width="300" height="20" fill="white"/>
</clipPath>
</defs>
</svg>
