<svg width="194" height="80" viewBox="0 0 194 80" fill="none" xmlns="http://www.w3.org/2000/svg">
<g clip-path="url(#clip0_157_202)">
<path d="M49.4747 8.39515C42.2953 4.57413 4.49848 9.96702 1.60913 44.1098C30.565 47 34.344 40.7273 43.8434 37.1447C42.4556 39.8207 40.1647 42.2257 40.5832 45.4436C61.9123 47.5756 78.239 42.4592 94.08 26.3266C109.921 10.194 124.593 7.08702 136.949 5.28308C125.096 7.62552 116.605 11.0981 115.05 13.9723L141.851 13.0816C146.247 8.99145 152.001 5.02671 157.83 2.63204C145.515 -3.10696 111.512 0.41287 96.0483 14.4351C79.7705 26.7483 70.4442 33.597 53.9204 34.0327L59.2552 21.7326C47.8126 28.3199 38.7479 34.5437 19.6884 33.514C20.6566 24.8584 28.0507 17.9375 49.9192 8.09876" fill="black" fill-opacity="0.995951"/>
<path d="M112.2 18.5354L138.163 18.5137C136.489 22.007 134.42 26.4009 132.165 27.9568L97.5085 27.6821C100.522 24.6264 105.186 20.4476 112.2 18.5354Z" fill="black" fill-opacity="0.995951"/>
<path d="M82.2141 43.2205L126.756 42.9982C128.838 41.72 130.825 36.3002 132.166 33.1709L96.7578 33.0444C93.5003 34.0764 87.0464 39.0388 82.2141 43.2205Z" fill="black" fill-opacity="0.995951"/>
<path d="M179.539 35.1938C177.025 40.6958 174.399 44.2396 160.049 44.6248C119.707 40.2406 147.208 -3.90213 194 3.86199C193.038 7.31767 190.52 10.8041 188.446 12.0355C136.718 16.2538 146.081 44.3105 179.539 35.1938Z" fill="black" fill-opacity="0.995951"/>
<path d="M2.69119 66.5705H0.596191V57.8164H7.74236V59.1696H2.69119V61.5617H6.66589V62.8764H2.69119V66.5705Z" fill="black" fill-opacity="0.995951"/>
<path d="M11.245 66.5705H9.20801V57.8164H11.245V66.5705Z" fill="black" fill-opacity="0.995951"/>
<path d="M22.6143 66.5705H20.4365L19.5339 64.4862H15.1866L14.3006 66.5705H12.5616L16.3128 57.8164H18.8218L22.6143 66.5705ZM18.9874 63.2228L17.3396 59.3171L15.6917 63.2228H18.9874Z" fill="black" fill-opacity="0.995951"/>
<path d="M41.7922 57.8164L38.7698 66.5705H36.6334L34.3811 60.1316L32.3358 66.5705H30.2408L27.1521 57.8164H29.3133L31.4994 64.1976L33.5365 57.8164H35.5983L37.8507 64.1976L39.9953 57.8164H41.7922Z" fill="black" fill-opacity="0.995951"/>
<path d="M47.3568 66.705C45.8553 66.705 44.6849 66.269 43.8458 65.3968C43.0122 64.5246 42.5955 63.4471 42.5955 62.1645C42.5955 60.8904 43.0399 59.8258 43.9286 58.9707C44.8174 58.1113 45.9905 57.6816 47.4479 57.6816C48.9163 57.6816 50.0756 58.1113 50.9258 58.9707C51.7814 59.8258 52.2092 60.8968 52.2092 62.1837C52.2092 63.5348 51.7649 64.6272 50.8761 65.4609C49.9928 66.2903 48.8197 66.705 47.3568 66.705ZM47.3736 65.4352C48.1078 65.4352 48.7288 65.2001 49.2367 64.7298C49.7446 64.2595 49.9985 63.4065 49.9985 62.1709C49.9985 61.1662 49.7887 60.3795 49.3692 59.8108C48.9496 59.2379 48.2982 58.9515 47.415 58.9515C45.6705 58.9515 44.7983 60.0396 44.7983 62.2158C44.7983 63.2718 45.0191 64.0735 45.4607 64.6208C45.9079 65.1637 46.5455 65.4352 47.3736 65.4352Z" fill="black" fill-opacity="0.995951"/>
<path d="M62.9326 66.5705H60.7797L59.0242 62.9726H56.1591V66.5705H54.1221V57.8164H59.0242C60.3877 57.8164 61.3897 58.0558 62.0301 58.5347C62.6704 59.0093 62.9906 59.6249 62.9906 60.3817C62.9906 61.5062 62.3116 62.28 60.9536 62.7033L62.9326 66.5705ZM56.1591 61.7092H58.693C59.4272 61.7092 59.9737 61.5895 60.3325 61.3501C60.6914 61.1107 60.8708 60.7815 60.8708 60.3625C60.8708 59.9777 60.6941 59.6677 60.3408 59.4325C59.9875 59.1931 59.4934 59.0734 58.8586 59.0734H56.1591V61.7092Z" fill="black" fill-opacity="0.995951"/>
<path d="M71.9751 66.5705H65.0194V57.8164H67.1641V65.1403H71.9751V66.5705Z" fill="black" fill-opacity="0.995951"/>
<path d="M73.4077 66.5705V57.8164H77.5729C79.1131 57.8164 80.3496 58.2397 81.2826 59.0862C82.2155 59.9285 82.682 60.9696 82.682 62.2095C82.682 63.4494 82.2017 64.4862 81.2412 65.3199C80.2806 66.1536 78.906 66.5705 77.1174 66.5705H73.4077ZM75.5027 65.2814H77.2002C78.1111 65.2814 78.884 65.0163 79.5188 64.4862C80.1536 63.956 80.4711 63.1672 80.4711 62.1197C80.4711 61.2646 80.1923 60.542 79.6347 59.952C79.0827 59.3577 78.3512 59.0606 77.4404 59.0606H75.5027V65.2814Z" fill="black" fill-opacity="0.995951"/>
<path d="M96.1463 66.5705H88.8014V57.8164H96.0718V59.1183H90.8384V61.4912H95.045V62.761H90.8384V65.2109H96.1463V66.5705Z" fill="black" fill-opacity="0.995951"/>
<path d="M106.447 66.5705H104.468L100.179 60.9781C100.113 60.8926 100.005 60.7537 99.856 60.5613C99.7897 60.4758 99.6876 60.3411 99.5496 60.1572V66.5705H97.91V57.8164H100.162L104.12 62.9726C104.154 63.0154 104.394 63.3297 104.841 63.9154V57.8164H106.447L106.447 66.5705Z" fill="black" fill-opacity="0.995951"/>
<path d="M108.882 66.5705V57.8164H113.047C114.587 57.8164 115.824 58.2397 116.757 59.0862C117.69 59.9285 118.156 60.9696 118.156 62.2095C118.156 63.4494 117.676 64.4862 116.715 65.3199C115.755 66.1536 114.38 66.5705 112.592 66.5705H108.882ZM110.977 65.2814H112.674C113.585 65.2814 114.358 65.0163 114.993 64.4862C115.628 63.956 115.945 63.1672 115.945 62.1197C115.945 61.2646 115.666 60.542 115.109 59.952C114.557 59.3577 113.825 59.0606 112.914 59.0606H110.977V65.2814Z" fill="black" fill-opacity="0.995951"/>
<path d="M127.795 57.8164V63.4408C127.795 64.2018 127.684 64.7876 127.464 65.198C127.243 65.6085 126.815 65.9634 126.18 66.2626C125.551 66.5576 124.781 66.7051 123.87 66.7051C122.948 66.7051 122.189 66.5769 121.593 66.3204C121.002 66.0638 120.577 65.7132 120.317 65.2686C120.058 64.8197 119.928 64.2489 119.928 63.5562V57.8164H122.007V63.4408C122.007 64.2104 122.214 64.717 122.628 64.9607C123.047 65.2002 123.533 65.3199 124.085 65.3199C124.72 65.3199 125.228 65.1916 125.609 64.9351C125.99 64.6743 126.18 64.1762 126.18 63.4408V57.8164H127.795Z" fill="black" fill-opacity="0.995951"/>
<path d="M138.949 66.5705H136.796L135.04 62.9726H132.175V66.5705H130.138V57.8164H135.04C136.404 57.8164 137.406 58.0558 138.046 58.5347C138.687 59.0093 139.007 59.6249 139.007 60.3817C139.007 61.5062 138.328 62.28 136.97 62.7033L138.949 66.5705ZM132.175 61.7092H134.709C135.443 61.7092 135.99 61.5895 136.349 61.3501C136.707 61.1107 136.887 60.7815 136.887 60.3625C136.887 59.9777 136.71 59.6677 136.357 59.4325C136.004 59.1931 135.51 59.0734 134.875 59.0734H132.175V61.7092Z" fill="black" fill-opacity="0.995951"/>
<path d="M149.904 66.5705H147.726L146.824 64.4862H142.476L141.59 66.5705H139.851L143.602 57.8164H146.111L149.904 66.5705ZM146.277 63.2228L144.629 59.3171L142.981 63.2228H146.277Z" fill="black" fill-opacity="0.995951"/>
<path d="M159.808 66.5705H157.829L153.539 60.9781C153.473 60.8926 153.365 60.7537 153.216 60.5613C153.15 60.4758 153.048 60.3411 152.91 60.1572V66.5705H151.27V57.8164H153.523L157.481 62.9726C157.514 63.0154 157.754 63.3297 158.201 63.9154V57.8164H159.808V66.5705Z" fill="black" fill-opacity="0.995951"/>
<path d="M168.618 63.5305L170.506 63.6908C170.385 64.5673 169.946 65.2899 169.19 65.8585C168.439 66.4229 167.451 66.705 166.225 66.705C165.193 66.705 164.354 66.5041 163.708 66.1022C163.067 65.7003 162.573 65.1552 162.226 64.4668C161.878 63.7785 161.704 63.0196 161.704 62.1901C161.704 60.8562 162.112 59.7724 162.929 58.9386C163.746 58.1006 164.87 57.6816 166.3 57.6816C167.42 57.6816 168.353 57.9489 169.098 58.4833C169.844 59.0177 170.313 59.783 170.506 60.7792L168.618 60.9332C168.27 59.612 167.503 58.9515 166.316 58.9515C165.554 58.9515 164.961 59.2272 164.536 59.7788C164.116 60.326 163.907 61.1213 163.907 62.1645C163.907 63.2248 164.133 64.0265 164.586 64.5695C165.038 65.1082 165.637 65.3775 166.382 65.3775C166.979 65.3775 167.486 65.1958 167.906 64.8324C168.326 64.469 168.563 64.035 168.618 63.5305Z" fill="black" fill-opacity="0.995951"/>
<path d="M179.482 66.5705H172.137V57.8164H179.408V59.1183H174.174V61.4912H178.381V62.761H174.174V65.2109H179.482V66.5705Z" fill="black" fill-opacity="0.995951"/>
<path d="M6.91432 76.8249L8.8023 76.9853C8.68085 77.8617 8.24198 78.5843 7.48568 79.1529C6.73491 79.7173 5.74675 79.9995 4.52122 79.9995C3.4889 79.9995 2.6498 79.7985 2.00391 79.3966C1.36354 78.9947 0.869466 78.4496 0.52168 77.7613C0.173893 77.0729 0 76.314 0 75.4846C0 74.1506 0.408512 73.0668 1.22553 72.2331C2.04256 71.3951 3.16596 70.9761 4.59575 70.9761C5.71639 70.9761 6.64934 71.2433 7.3946 71.7777C8.13985 72.3122 8.60909 73.0775 8.8023 74.0737L6.91432 74.2276C6.56653 72.9065 5.7992 72.2459 4.61231 72.2459C3.85049 72.2459 3.25705 72.5217 2.83197 73.0732C2.41242 73.6205 2.20265 74.4157 2.20265 75.4589C2.20265 76.5193 2.42898 77.3209 2.88166 77.8639C3.33433 78.4026 3.9333 78.672 4.67855 78.672C5.27476 78.672 5.78264 78.4903 6.20219 78.1268C6.62174 77.7634 6.85912 77.3295 6.91432 76.8249Z" fill="black" fill-opacity="0.995951"/>
<path d="M18.8219 79.8649H16.7848V76.0619H12.4706V79.8649H10.4336V71.1108H12.4706V74.7087H16.7848V71.1108H18.8219V79.8649Z" fill="black" fill-opacity="0.995951"/>
<path d="M30.1663 79.8649H27.9885L27.0859 77.7806H22.7386L21.8526 79.8649H20.1136L23.8648 71.1108H26.3738L30.1663 79.8649ZM26.5394 76.5172L24.8916 72.6115L23.2437 76.5172H26.5394Z" fill="black" fill-opacity="0.995951"/>
<path d="M42.6203 79.8649H40.5419V72.2011L37.4118 79.8649H36.3436L33.197 72.2011V79.8649H31.5326V71.1108H34.7206L37.0889 76.7481L39.4157 71.1108H42.6203V79.8649Z" fill="black" fill-opacity="0.995951"/>
<path d="M47.1498 79.8649H45.1128V71.1108H49.7417C51.061 71.1108 52.0381 71.3695 52.673 71.8868C53.3134 72.3999 53.6335 73.007 53.6335 73.7082C53.6335 74.5077 53.2885 75.1554 52.5985 75.6514C51.9084 76.1474 51.0334 76.3953 49.9735 76.3953H47.1498V79.8649ZM47.1498 75.0421H49.5595C50.1888 75.0421 50.6691 74.9224 51.0003 74.683C51.3315 74.4436 51.4972 74.1251 51.4972 73.7274C51.4972 73.3683 51.3426 73.0605 51.0334 72.8039C50.7298 72.5474 50.1778 72.4191 49.3773 72.4191H47.1498V75.0421Z" fill="black" fill-opacity="0.995951"/>
<path d="M57.3184 79.8649H55.2814V71.1108H57.3184V79.8649Z" fill="black" fill-opacity="0.995951"/>
<path d="M63.9844 80C62.4828 80 61.3125 79.5639 60.4734 78.6917C59.6398 77.8195 59.223 76.7421 59.223 75.4594C59.223 74.1853 59.6674 73.1207 60.5562 72.2656C61.445 71.4063 62.6181 70.9766 64.0755 70.9766C65.5439 70.9766 66.7032 71.4063 67.5533 72.2656C68.409 73.1207 68.8368 74.1917 68.8368 75.4786C68.8368 76.8297 68.3924 77.9221 67.5036 78.7558C66.6204 79.5852 65.4473 80 63.9844 80ZM64.0011 78.7302C64.7353 78.7302 65.3564 78.495 65.8643 78.0247C66.3722 77.5544 66.6261 76.7014 66.6261 75.4658C66.6261 74.4611 66.4163 73.6744 65.9968 73.1058C65.5772 72.5328 64.9258 72.2464 64.0425 72.2464C62.2981 72.2464 61.4259 73.3345 61.4259 75.5107C61.4259 76.5668 61.6467 77.3684 62.0883 77.9157C62.5355 78.4587 63.1731 78.7302 64.0011 78.7302Z" fill="black" fill-opacity="0.995951"/>
<path d="M79.287 79.8649H77.3079L73.0185 74.2726C72.9523 74.187 72.8446 74.0481 72.6956 73.8557C72.6293 73.7702 72.5272 73.6355 72.3892 73.4517V79.8649H70.7496V71.1108H73.002L76.9601 76.2671C76.9932 76.3098 77.2334 76.6241 77.6805 77.2098V71.1108H79.287V79.8649Z" fill="black" fill-opacity="0.995951"/>
<path d="M80.5952 77.7553L82.5743 77.4283C82.8117 78.2962 83.7226 78.7301 85.3069 78.7301C86.0301 78.7301 86.5849 78.619 86.9713 78.3967C87.3633 78.1743 87.5592 77.8986 87.5592 77.5694C87.5592 77.3299 87.4709 77.1097 87.2943 76.9088C87.1176 76.7036 86.7394 76.5432 86.1598 76.4278L83.9986 75.9917C83.2588 75.8421 82.7123 75.6732 82.359 75.4851C82.0057 75.2927 81.7214 75.0233 81.5061 74.677C81.2963 74.3307 81.1914 73.9608 81.1914 73.5675C81.1914 72.7851 81.5668 72.1587 82.3176 71.6884C83.0684 71.2138 84.0289 70.9766 85.1992 70.9766C86.1708 70.9766 87.0375 71.1412 87.7994 71.4704C88.5667 71.7996 89.0553 72.2656 89.265 72.8685L87.3274 73.2404C87.0293 72.5777 86.3337 72.2464 85.2406 72.2464C84.6058 72.2464 84.12 72.349 83.7833 72.5542C83.452 72.7594 83.2864 73.0202 83.2864 73.3366C83.2864 73.8369 83.8109 74.1875 84.8597 74.3884L86.7808 74.7604C87.9457 74.987 88.7268 75.3226 89.1243 75.7673C89.5217 76.2076 89.7205 76.695 89.7205 77.2295C89.7205 78.0888 89.3009 78.7665 88.4618 79.2625C87.6282 79.7541 86.5462 80 85.2158 80C84.0952 80 83.1125 79.8183 82.2679 79.4549C81.4288 79.0915 80.8713 78.5249 80.5952 77.7553Z" fill="black" fill-opacity="0.995951"/>
<path d="M99.8725 79.8649H97.8355V76.0619H93.5213V79.8649H91.4843V71.1108H93.5213V74.7087H97.8355V71.1108H99.8725V79.8649Z" fill="black" fill-opacity="0.995951"/>
<path d="M104.385 79.8649H102.348V71.1108H104.385V79.8649Z" fill="black" fill-opacity="0.995951"/>
<path d="M108.923 79.8649H106.886V71.1108H111.515C112.834 71.1108 113.812 71.3695 114.446 71.8868C115.087 72.3999 115.407 73.007 115.407 73.7082C115.407 74.5077 115.062 75.1554 114.372 75.6514C113.682 76.1474 112.807 76.3953 111.747 76.3953H108.923V79.8649ZM108.923 75.0421H111.333C111.962 75.0421 112.443 74.9224 112.774 74.683C113.105 74.4436 113.271 74.1251 113.271 73.7274C113.271 73.3683 113.116 73.0605 112.807 72.8039C112.503 72.5474 111.951 72.4191 111.151 72.4191H108.923V75.0421Z" fill="black" fill-opacity="0.995951"/>
</g>
<defs>
<clipPath id="clip0_157_202">
<rect width="194" height="80" fill="white"/>
</clipPath>
</defs>
</svg>
