<svg width="280" height="70" viewBox="0 0 280 70" fill="currentColor" xmlns="http://w3.org">
  <g clip-path="url(#clip0_108_138)">
    <path d="M239.262 54.6877C241.47 54.6877 243.294 55.4242 244.738 56.9044C246.181 58.3845 246.904 60.2002 246.904 62.3585C246.904 64.5167 246.188 66.3325 244.751 67.7981C243.316 69.2638 241.5 70.0002 239.292 70.0002C237.081 70.0002 235.244 69.2636 233.786 67.7835C232.32 66.3033 231.591 64.4877 231.591 62.3294C231.591 60.1711 232.319 58.3553 233.77 56.8897C235.223 55.4241 237.053 54.6877 239.262 54.6877ZM204.232 26.2136H111.176C87.8428 26.2136 82.8772 28.0145 70.6417 39.8781H70.6489L39.6011 70H0L49.2698 21.102C67.5864 2.975 76.4167 7.48071e-07 107.647 0H231.007L204.232 26.2136ZM200.237 30.3989L175.693 54.9426H112.197C100.559 54.9426 97.9855 55.4895 92.2105 61.2645L83.475 70H46.7542L73.9011 42.8531C84.5616 32.2 88.2366 30.3989 111.737 30.3989H200.237ZM280 0L209.811 70H166.403L236.404 0H280ZM239.248 55.8908C237.438 55.8908 235.923 56.518 234.698 57.772C233.48 59.0263 232.867 60.543 232.867 62.3294C232.867 64.1158 233.48 65.6324 234.698 66.8866C235.916 68.1408 237.431 68.7678 239.248 68.7678C241.062 68.7678 242.573 68.1481 243.798 66.9013C245.016 65.6544 245.626 64.1377 245.626 62.3439C245.626 60.5502 245.016 59.0263 243.798 57.772C242.58 56.5178 241.062 55.8908 239.248 55.8908ZM239.262 58.1147C240.362 58.1147 241.194 58.3189 241.749 58.7346C242.301 59.1428 242.58 59.7627 242.58 60.5866C242.58 61.4105 242.469 62.023 242.244 62.4241C242.018 62.8252 241.638 63.146 241.099 63.3939L242.695 66.6169H240.924L239.474 63.6127H237.76L237.751 63.6053V66.6096H236.068V58.1147H239.262ZM237.724 62.2856H239.437C239.962 62.2856 240.342 62.1763 240.567 61.9502C240.8 61.7241 240.917 61.3596 240.917 60.8564C240.917 59.9013 240.319 59.4272 239.117 59.4272H237.724V62.2856Z"/>
  </g>
  <defs>
    <clipPath id="clip0_108_138">
      <rect width="280" height="70" fill="white"/>
    </clipPath>
  </defs>
</svg>
