<svg width="257" height="54" viewBox="0 0 257 54" fill="none" xmlns="http://www.w3.org/2000/svg">
<g clip-path="url(#clip0_120_86)">
<path d="M121.239 54.1669L166.289 9.58358H55.8448C35.4999 9.58358 17.2309 22.0836 10.7953 26.8752C14.9473 22.7086 23.8742 13.9586 28.0262 9.79191C34.4619 3.33358 40.6899 0.000244141 55.222 0.000244141H254.935L248.914 6.04191C246.631 8.33358 243.516 9.58358 240.402 9.58358H198.467C198.052 10.0002 163.59 44.1669 160.476 47.2919C155.909 51.6669 149.681 54.1669 143.037 54.1669H121.654H121.239Z" fill="currentColor"/>
<path d="M254.519 0.208496L248.706 5.83349C246.423 8.12516 243.516 9.37516 240.195 9.37516H198.052C197.637 9.79183 163.175 43.9585 160.061 47.0835C155.493 51.4585 149.265 53.9585 142.622 53.9585H121.654L166.289 9.79183L166.912 9.16683H55.8448C42.7659 9.16683 30.725 14.3752 22.6285 18.7502C18.4765 21.0418 14.9473 23.3335 12.4561 25.2085C17.0233 20.8335 24.2893 13.3335 28.0262 9.79183C31.763 6.04183 35.0846 3.75016 39.029 2.29183C43.1811 0.625163 48.1635 0.000162363 55.0144 0.000162363H254.312M255.142 -0.208172H55.222C41.5203 -0.208172 35.0846 2.7085 28.0262 9.5835C22.4209 15.0002 8.71924 28.7502 8.71924 28.7502C8.71924 28.7502 30.9326 9.5835 56.0524 9.5835H166.289L121.239 54.1668H143.037C149.473 54.1668 155.909 51.6668 160.683 47.0835C164.005 43.9585 198.675 9.37516 198.675 9.37516H240.61C243.932 9.37516 247.046 8.12516 249.329 5.83349L255.557 -0.416504L255.142 -0.208172Z" fill="currentColor"/>
<path d="M138.055 19.1668H80.3418C76.8125 19.1668 73.4909 20.6252 70.9997 23.1252L67.6781 26.4585H105.669C91.5522 40.4168 91.3446 40.4168 75.9821 40.4168H46.9179L32.801 54.3752H91.3446C97.1575 54.3752 104.424 52.0835 109.406 47.0835L137.64 18.9585L138.055 19.1668Z" fill="currentColor"/>
<path d="M59.9968 17.0834C64.9793 12.0834 70.3769 9.79175 77.0201 9.79175H55.8448C30.725 9.79175 8.51169 28.9584 8.51169 28.9584L5.19006 32.2917H44.8419C44.8419 32.2917 54.184 22.9167 59.7892 17.2917L59.9968 17.0834Z" fill="currentColor"/>
</g>
<defs>
<clipPath id="clip0_120_86">
<rect width="257" height="54" fill="currentColor"/>
</clipPath>
</defs>
</svg>
