<svg width="267" height="63" viewBox="0 0 267 63" fill="currentColor" xmlns="http://www.w3.org/2000/svg">
<g clip-path="url(#clip0_117_2)">
<path d="M68.0914 11.5433C58.2105 6.28943 6.19118 13.7047 2.2146 60.6511C42.0662 64.6251 47.2672 56.0001 60.3412 51.074C58.4312 54.7535 55.2782 58.0604 55.8542 62.485C85.2092 65.4165 107.679 58.3815 129.481 36.1991C151.283 14.0167 171.476 9.74466 188.481 7.26424C172.168 10.4851 160.482 15.2599 158.341 19.2119L195.228 17.9872C201.278 12.3633 209.197 6.91173 217.22 3.61905C200.271 -4.27207 153.473 0.567696 132.19 19.8483C109.787 36.7789 96.9515 46.1959 74.21 46.7949L81.5523 29.8823C65.8039 38.9399 53.3282 47.4976 27.0969 46.0818C28.4295 34.1803 38.6058 24.664 68.7032 11.1358" fill="currentColor"/>
<path d="M154.42 25.4859L190.152 25.4561C187.848 30.2594 185.001 36.301 181.897 38.4404L134.2 38.0627C138.347 33.8611 144.766 28.1153 154.42 25.4859Z" fill="currentColor"/>
<path d="M113.15 59.4283L174.453 59.1227C177.318 57.3652 180.053 49.913 181.899 45.6102L133.167 45.4363C128.684 46.8553 119.801 53.6785 113.15 59.4283Z" fill="currentColor"/>
<path d="M247.098 48.3917C243.637 55.9569 240.023 60.8296 220.274 61.3593C164.751 55.3309 202.6 -5.36531 267 5.31036C265.676 10.0619 262.211 14.8557 259.357 16.549C188.163 22.349 201.049 60.9271 247.098 48.3917Z" fill="currentColor"/>
</g>
<defs>
<clipPath id="clip0_117_2">
<rect width="267" height="63" fill="currentColor"/>
</clipPath>
</defs>
</svg>
